<svg width="26" height="26" viewBox="0 0 26 26" fill="none" xmlns="http://www.w3.org/2000/svg">
<path d="M13 20.8C10.2917 20.8 7.8975 19.4133 6.5 17.3333C6.5325 15.1666 10.8333 13.975 13 13.975C15.1667 13.975 19.4675 15.1666 19.5 17.3333C18.7838 18.3997 17.8163 19.2737 16.6829 19.8782C15.5494 20.4828 14.2846 20.7993 13 20.8ZM13 5.41663C13.8619 5.41663 14.6886 5.75904 15.2981 6.36853C15.9076 6.97802 16.25 7.80467 16.25 8.66663C16.25 9.52858 15.9076 10.3552 15.2981 10.9647C14.6886 11.5742 13.8619 11.9166 13 11.9166C12.138 11.9166 11.3114 11.5742 10.7019 10.9647C10.0924 10.3552 9.75 9.52858 9.75 8.66663C9.75 7.80467 10.0924 6.97802 10.7019 6.36853C11.3114 5.75904 12.138 5.41663 13 5.41663ZM13 2.16663C11.5773 2.16663 10.1686 2.44684 8.85426 2.99126C7.5399 3.53569 6.34564 4.33367 5.33967 5.33964C3.30803 7.37128 2.16666 10.1268 2.16666 13C2.16666 15.8731 3.30803 18.6286 5.33967 20.6603C6.34564 21.6663 7.5399 22.4642 8.85426 23.0087C10.1686 23.5531 11.5773 23.8333 13 23.8333C15.8732 23.8333 18.6287 22.6919 20.6603 20.6603C22.692 18.6286 23.8333 15.8731 23.8333 13C23.8333 7.00913 18.9583 2.16663 13 2.16663Z" fill="#25C578"/>
</svg>
