<svg width="12" height="12" viewBox="0 0 12 12" fill="none" xmlns="http://www.w3.org/2000/svg">
<path d="M9.48327 7.81673C9.23327 6.06673 7.7666 4.7334 5.99993 4.7334C4.23327 4.7334 2.7666 6.06673 2.5166 7.80007H9.48327V7.81673Z" fill="#428BC1"/>
<path d="M10.9663 4.4833C10.8996 4.1833 10.7163 3.94996 10.4496 3.79996C10.333 3.7333 10.1996 3.69996 10.0663 3.6833C9.94962 3.66663 9.83295 3.6833 9.71628 3.71663C9.51628 3.76663 9.31629 3.86663 9.13295 3.94996C8.88295 4.06663 8.64962 4.1833 8.43295 4.1833V4.94996C8.81628 4.94996 9.16628 4.7833 9.46628 4.6333C9.78295 4.4833 9.98295 4.3833 10.0996 4.44996C10.183 4.49996 10.233 4.56663 10.2496 4.64996C10.2663 4.74996 10.2663 4.8833 10.233 5.0333C10.1996 5.19996 10.1163 5.3833 10.0163 5.59996C9.81628 6.01663 9.54962 6.41663 9.34962 6.71663C9.28295 6.8333 9.21628 6.9333 9.16628 6.99996L9.11629 7.09996C9.11629 7.11663 9.09962 7.11663 9.09962 7.1333H2.93295C2.93295 7.11663 2.91628 7.11663 2.91628 7.09996L2.86628 6.99996C2.81628 6.91663 2.74962 6.81663 2.68295 6.71663C2.48295 6.41663 2.21628 6.01663 2.01628 5.59996C1.91628 5.3833 1.84962 5.19996 1.79962 5.0333C1.76628 4.86663 1.74962 4.7333 1.78295 4.64996C1.79962 4.56663 1.84962 4.49996 1.93295 4.44996C2.04962 4.3833 2.24962 4.46663 2.56628 4.6333C2.86628 4.7833 3.19962 4.94996 3.59962 4.94996V4.1833C3.38295 4.1833 3.14962 4.06663 2.89962 3.94996C2.71628 3.84996 2.51628 3.76663 2.31628 3.71663C2.16628 3.6833 2.04962 3.66663 1.93295 3.6833C1.79962 3.69996 1.66628 3.7333 1.54962 3.79996C1.28295 3.94996 1.09962 4.19996 1.03295 4.4833C0.949618 4.86663 1.03295 5.34996 1.33295 5.94996C1.54962 6.39996 1.83295 6.8333 2.04962 7.14996C2.11628 7.24996 2.18295 7.34996 2.21628 7.41663C2.23295 7.44996 2.24962 7.4833 2.28295 7.51663C2.38295 7.66663 2.44962 7.7833 2.48295 7.91663L2.48295 9.79996C2.43295 9.79996 2.39962 9.8333 2.39962 9.89996C2.39962 9.94996 2.43295 9.99996 2.48295 9.99996H9.53295C9.58295 9.99996 9.61629 9.96663 9.61629 9.89996C9.61629 9.84996 9.58295 9.79996 9.53295 9.79996V7.9333C9.58295 7.79996 9.64962 7.6833 9.73295 7.5333C9.74962 7.49996 9.76628 7.46663 9.79962 7.4333C9.83295 7.36663 9.89962 7.26663 9.96628 7.16663C10.1663 6.84996 10.4496 6.41663 10.683 5.96663C10.9663 5.36663 11.0496 4.8833 10.9663 4.4833Z" fill="#F2B200"/>
<path d="M6.15006 5.19976C6.23339 5.46643 5.81673 5.86643 5.21673 6.06643C4.61673 6.2831 4.05006 6.2331 3.95006 5.96643C3.86673 5.69976 4.28339 5.29976 4.88339 5.09976C5.48339 4.89976 6.05006 4.9331 6.15006 5.19976Z" fill="#42ADE2"/>
<path d="M5.59961 8.09961H6.39961V9.89961H5.59961V8.09961Z" fill="#FFDD7D"/>
<path d="M6.96631 8.09961H7.76631V9.89961H6.96631V8.09961Z" fill="#FFCE31"/>
<path d="M6.3999 8.09961H6.96657V9.89961H6.3999V8.09961Z" fill="#1C1C1C"/>
<path d="M8.33301 8.09961H8.89967V9.89961H8.33301V8.09961Z" fill="#FFCE31"/>
<path d="M2.46631 8.09961H3.03298V9.89961H2.46631V8.09961Z" fill="#F2B200"/>
<path d="M3.09961 8.09961H4.19961V9.89961H3.09961V8.09961Z" fill="#FFCE31"/>
<path d="M5.4 6.4832C5.4 6.7332 4.95 7.36654 4.95 7.36654C4.95 7.36654 4.5 6.7332 4.5 6.4832C4.5 6.2332 4.7 6.0332 4.95 6.0332C5.2 6.0332 5.4 6.2332 5.4 6.4832ZM7.48333 6.4832C7.48333 6.7332 7.03333 7.36654 7.03333 7.36654C7.03333 7.36654 6.58333 6.7332 6.58333 6.4832C6.58333 6.2332 6.78333 6.0332 7.03333 6.0332C7.28333 6.0332 7.48333 6.2332 7.48333 6.4832Z" fill="#F2B200"/>
<path d="M7.04971 2.76673H4.94971L5.44971 1.9834H6.51637L7.04971 2.76673Z" fill="#66CAF2"/>
<path d="M2.68311 6.1332C3.08311 5.74987 3.88311 5.54987 4.41644 5.69987C3.99977 6.0832 3.21644 6.2832 2.68311 6.1332ZM9.34977 6.1332C8.81644 6.2832 8.01644 6.0832 7.61644 5.69987C8.14977 5.54987 8.94977 5.74987 9.34977 6.1332ZM5.09977 5.6832C5.58311 5.39987 6.39977 5.39987 6.88311 5.6832C6.39977 5.96654 5.59977 5.96654 5.09977 5.6832Z" fill="#FFCE31"/>
<path d="M6.1665 1.9834L6.34984 2.76673H7.04984L6.5165 1.9834H6.1665Z" fill="#428BC1"/>
<path d="M6.16657 1.9834H5.7999L5.6499 2.76673H6.3499L6.16657 1.9834Z" fill="#42ADE2"/>
<path d="M5.79971 1.9834L5.64971 2.76673H4.94971L5.44971 1.9834H5.79971Z" fill="#66CAF2"/>
<path d="M2.58301 7.6166C3.71634 7.53327 4.86634 7.5166 5.99967 7.5166C7.13301 7.5166 8.28301 7.53327 9.41634 7.6166C8.28301 7.69994 7.13301 7.7166 5.99967 7.7166C4.86634 7.69994 3.71634 7.69994 2.58301 7.6166Z" fill="#FFDD7D"/>
<path d="M2.4668 8.09961H9.5168V8.28294H2.4668V8.09961Z" fill="#428BC1"/>
<path d="M2.46663 8.28301C2.51266 8.28301 2.54997 8.23824 2.54997 8.18301C2.54997 8.12778 2.51266 8.08301 2.46663 8.08301C2.42061 8.08301 2.3833 8.12778 2.3833 8.18301C2.3833 8.23824 2.42061 8.28301 2.46663 8.28301Z" fill="#428BC1"/>
<path d="M9.53353 8.28301C9.57955 8.28301 9.61686 8.23824 9.61686 8.18301C9.61686 8.12778 9.57955 8.08301 9.53353 8.08301C9.4875 8.08301 9.4502 8.12778 9.4502 8.18301C9.4502 8.23824 9.4875 8.28301 9.53353 8.28301Z" fill="#428BC1"/>
<path d="M9.11668 4.06667C9.06668 3.88333 9.00001 3.71667 8.88335 3.56667C8.76668 3.41667 8.63335 3.28333 8.45001 3.18333C8.31668 3.11667 8.18335 3.06667 8.03335 3.05C7.91668 3.03333 7.78335 3.05 7.65001 3.08333C7.43335 3.13333 7.21668 3.25 7.00001 3.35C6.95001 3.38333 6.88335 3.4 6.81668 3.43333C6.95001 3.16667 7.03335 2.91667 7.03335 2.75L4.95001 2.75C4.95001 2.91667 5.03335 3.16667 5.16668 3.43333C5.10001 3.4 5.05001 3.38333 4.98335 3.35C4.76668 3.25 4.55001 3.13333 4.33335 3.08333C4.20001 3.05 4.06668 3.03333 3.95001 3.05C3.80001 3.06667 3.66668 3.1 3.53335 3.18333C3.36668 3.28333 3.21668 3.41667 3.10001 3.56667C3.00001 3.71667 2.91668 3.88333 2.86668 4.06667C2.75001 4.55 2.81668 5.16667 3.08335 5.88333C3.28335 6.45 3.55001 6.91667 3.66668 7.15H4.55001C4.51668 7.08333 4.46668 7.01667 4.43335 6.95C4.41668 6.91667 4.38335 6.88333 4.36668 6.85C4.01668 6.28333 3.41668 5 3.60001 4.26667C3.65001 4.08333 3.73335 3.95 3.90001 3.86667C3.95001 3.83333 4.01668 3.81667 4.16668 3.85C4.31668 3.88333 4.48335 3.96667 4.66668 4.06667C4.95001 4.21667 5.26668 4.36667 5.61668 4.41667V7.16667H6.36668V4.41667C6.71668 4.36667 7.03335 4.21667 7.33335 4.06667C7.51668 3.98333 7.68335 3.88333 7.83335 3.85C7.98335 3.81667 8.05001 3.83333 8.10001 3.86667C8.25001 3.95 8.35001 4.08333 8.40001 4.26667C8.58335 5 7.98335 6.26667 7.63335 6.85C7.61668 6.88333 7.58335 6.91667 7.56668 6.95C7.51668 7.01667 7.48335 7.08333 7.45001 7.15H8.33335C8.46668 6.93333 8.71668 6.45 8.91668 5.88333C9.16668 5.16667 9.23335 4.55 9.11668 4.06667Z" fill="#FFCE31"/>
<path d="M5.99993 3.51673C5.7166 3.51673 5.4666 3.40007 5.2666 3.2334C5.3166 3.60007 5.6166 3.8834 5.99993 3.8834C6.3666 3.8834 6.68327 3.60007 6.73327 3.2334C6.53327 3.41673 6.28327 3.51673 5.99993 3.51673Z" fill="#F2B200"/>
</svg>
