<svg width="26" height="26" viewBox="0 0 26 26" fill="none" xmlns="http://www.w3.org/2000/svg">
<path d="M2.16667 13C2.16721 10.6249 2.94827 8.31584 4.38965 6.42811C5.83103 4.54037 7.85283 3.17863 10.1439 2.55246C12.435 1.92629 14.8683 2.07039 17.0695 2.96259C19.2707 3.85479 21.1176 5.44563 22.3261 7.49029C23.5346 9.53495 24.0377 11.9201 23.7579 14.2787C23.4781 16.6372 22.431 18.8385 20.7777 20.5437C19.1244 22.2488 16.9565 23.3634 14.6077 23.7159C12.2589 24.0684 9.85933 23.6392 7.77833 22.4944L3.56633 23.777C3.37846 23.8343 3.17857 23.8394 2.98804 23.7917C2.7975 23.7441 2.62349 23.6456 2.48462 23.5068C2.34575 23.3679 2.24724 23.1939 2.19963 23.0033C2.15202 22.8128 2.1571 22.6129 2.21433 22.425L3.497 18.2065C2.62157 16.611 2.16393 14.82 2.16667 13ZM8.66667 11.9167C8.66667 12.204 8.7808 12.4796 8.98397 12.6827C9.18713 12.8859 9.46268 13 9.75 13H16.25C16.5373 13 16.8129 12.8859 17.016 12.6827C17.2192 12.4796 17.3333 12.204 17.3333 11.9167C17.3333 11.6294 17.2192 11.3538 17.016 11.1507C16.8129 10.9475 16.5373 10.8334 16.25 10.8334H9.75C9.46268 10.8334 9.18713 10.9475 8.98397 11.1507C8.7808 11.3538 8.66667 11.6294 8.66667 11.9167ZM9.75 15.1667C9.46268 15.1667 9.18713 15.2809 8.98397 15.484C8.7808 15.6872 8.66667 15.9627 8.66667 16.25C8.66667 16.5374 8.7808 16.8129 8.98397 17.0161C9.18713 17.2192 9.46268 17.3334 9.75 17.3334H14.0833C14.3707 17.3334 14.6462 17.2192 14.8494 17.0161C15.0525 16.8129 15.1667 16.5374 15.1667 16.25C15.1667 15.9627 15.0525 15.6872 14.8494 15.484C14.6462 15.2809 14.3707 15.1667 14.0833 15.1667H9.75Z" fill="#25C578"/>
</svg>
