<svg width="26" height="26" viewBox="0 0 26 26" fill="none" xmlns="http://www.w3.org/2000/svg">
<path d="M13 2.16663C11.5773 2.16663 10.1686 2.44684 8.85426 2.99126C7.5399 3.53569 6.34564 4.33367 5.33967 5.33964C3.30803 7.37128 2.16666 10.1268 2.16666 13C2.16666 15.8731 3.30803 18.6286 5.33967 20.6603C6.34564 21.6663 7.5399 22.4642 8.85426 23.0087C10.1686 23.5531 11.5773 23.8333 13 23.8333C15.8732 23.8333 18.6287 22.6919 20.6603 20.6603C22.692 18.6286 23.8333 15.8731 23.8333 13C23.8333 11.5773 23.5531 10.1686 23.0087 8.85422C22.4643 7.53986 21.6663 6.3456 20.6603 5.33964C19.6544 4.33367 18.4601 3.53569 17.1457 2.99126C15.8314 2.44684 14.4227 2.16663 13 2.16663ZM7.65916 19.8033C8.125 18.8283 10.9633 17.875 13 17.875C15.0367 17.875 17.875 18.8283 18.3408 19.8033C16.8235 21.0123 14.9401 21.6694 13 21.6666C10.985 21.6666 9.1325 20.9733 7.65916 19.8033ZM19.89 18.2325C18.3408 16.3475 14.5817 15.7083 13 15.7083C11.4183 15.7083 7.65916 16.3475 6.11 18.2325C4.95753 16.7316 4.33297 14.8922 4.33333 13C4.33333 8.22246 8.2225 4.33329 13 4.33329C17.7775 4.33329 21.6667 8.22246 21.6667 13C21.6667 14.9716 20.995 16.7916 19.89 18.2325ZM13 6.49996C10.8983 6.49996 9.20833 8.18996 9.20833 10.2916C9.20833 12.3933 10.8983 14.0833 13 14.0833C15.1017 14.0833 16.7917 12.3933 16.7917 10.2916C16.7917 8.18996 15.1017 6.49996 13 6.49996ZM13 11.9166C12.569 11.9166 12.1557 11.7454 11.8509 11.4407C11.5462 11.1359 11.375 10.7226 11.375 10.2916C11.375 9.86065 11.5462 9.44732 11.8509 9.14258C12.1557 8.83783 12.569 8.66663 13 8.66663C13.431 8.66663 13.8443 8.83783 14.149 9.14258C14.4538 9.44732 14.625 9.86065 14.625 10.2916C14.625 10.7226 14.4538 11.1359 14.149 11.4407C13.8443 11.7454 13.431 11.9166 13 11.9166Z" fill="#666666"/>
</svg>
