<svg width="220" height="172" viewBox="0 0 220 172" fill="none" xmlns="http://www.w3.org/2000/svg">
<path d="M59.8139 120.426C59.8947 119.779 59.9564 119.114 59.9564 118.449C59.9564 110.389 53.4031 103.859 45.3153 103.859C42.0802 103.859 39.0874 104.907 36.6622 106.68C34.3962 101.541 29.2609 97.9742 23.2539 97.9742C15.1661 97.9742 8.61517 104.505 8.61517 112.565C8.61517 114.842 9.1401 116.998 10.0712 118.934C5.3183 121.131 2.00244 125.948 2.00244 131.529C2.00244 139.208 8.25175 145.414 15.9357 145.414C19.919 145.414 23.5175 143.741 26.0448 141.08C28.1089 143.298 31.059 144.669 34.3369 144.669C38.4009 144.669 41.9591 142.531 43.9614 139.329C46.2868 142.633 50.1276 144.811 54.4957 144.811C61.574 144.811 67.3363 139.087 67.3363 132.012C67.315 126.873 64.2414 122.44 59.8139 120.426Z" fill="#C1FF72"/>
<path d="M38.9875 144.226L40.0184 169.014H30.5957L31.5862 144.851L38.9875 144.226Z" fill="#DB9483"/>
<mask id="mask0_427_443" style="mask-type:luminance" maskUnits="userSpaceOnUse" x="28" y="141" width="15" height="30">
<path d="M28.1895 141.79H42.175V170.988H28.1895V141.79Z" fill="white"/>
</mask>
<g mask="url(#mask0_427_443)">
<path d="M40.0182 170.988H30.5956C30.0493 170.988 29.5433 170.765 29.1799 170.384C28.8165 170.001 28.6122 169.475 28.6336 168.933L29.6241 144.771C29.6645 143.682 30.5956 142.834 31.6858 142.875C32.7784 142.915 33.6288 143.843 33.5884 144.932L32.6573 167.059H37.9541L37.004 144.307C36.9636 143.218 37.814 142.311 38.9066 142.25C39.9969 142.209 40.9066 143.057 40.9683 144.146L41.9992 168.952C42.0206 169.497 41.8163 170.001 41.4529 170.403C41.0895 170.806 40.5432 170.988 40.0182 170.988Z" fill="#4A4E59"/>
</g>
<mask id="mask1_427_443" style="mask-type:luminance" maskUnits="userSpaceOnUse" x="0" y="96" width="70" height="52">
<path d="M0 96H69.3196V147.85H0V96Z" fill="white"/>
</mask>
<g mask="url(#mask1_427_443)">
<path d="M15.9357 147.388C7.15914 147.388 0.0214844 140.276 0.0214844 131.529C0.0214844 126.007 2.93355 120.889 7.58431 118.028C6.95724 116.274 6.65321 114.439 6.65321 112.546C6.65321 103.416 14.0949 96 23.2539 96C29.078 96 34.4176 99.0227 37.4104 103.88C39.8166 102.571 42.5244 101.884 45.3153 101.884C54.4767 101.884 61.916 109.3 61.916 118.43C61.916 118.712 61.916 118.993 61.897 119.277C66.4266 121.895 69.2983 126.753 69.2983 132.033C69.2983 140.174 62.6642 146.785 54.4957 146.785C50.5528 146.785 46.7927 145.213 44.0422 142.451C41.5553 145.092 38.0779 146.624 34.3559 146.624C31.344 146.624 28.432 145.597 26.0852 143.741C23.2135 146.12 19.6958 147.388 15.9357 147.388ZM23.2753 99.9293C16.2991 99.9293 10.6175 105.594 10.6175 112.546C10.6175 114.479 11.0427 116.333 11.8907 118.047C12.1139 118.532 12.1543 119.074 11.9714 119.559C11.7909 120.063 11.4251 120.466 10.9406 120.686C6.71497 122.641 3.98342 126.873 3.98342 131.508C3.98342 138.079 9.342 143.44 15.9547 143.44C19.2706 143.44 22.3442 142.11 24.6292 139.712C25.014 139.307 25.5389 139.106 26.0662 139.106C26.6125 139.106 27.1374 139.329 27.5009 139.731C29.3013 141.646 31.7265 142.695 34.3369 142.695C37.591 142.695 40.5648 141.04 42.2821 138.28C42.6265 137.717 43.2536 137.374 43.8997 137.352C44.5671 137.333 45.1942 137.655 45.579 138.2C47.6217 141.102 50.9376 142.856 54.4767 142.856C60.46 142.856 65.334 137.998 65.334 132.033C65.334 127.82 62.8471 123.952 58.9849 122.198C58.1963 121.836 57.7308 121.01 57.8519 120.144C57.9327 119.559 57.9731 118.993 57.9731 118.43C57.9731 111.478 52.2915 105.814 45.3153 105.814C42.6051 105.814 40.0185 106.661 37.8332 108.252C37.3487 108.616 36.743 108.716 36.1563 108.576C35.5696 108.415 35.1041 108.01 34.8618 107.466C32.8405 102.893 28.2894 99.9293 23.2753 99.9293Z" fill="#4A4E59"/>
</g>
<path d="M31.1609 156.639C30.7571 156.639 30.3533 156.478 30.0683 156.156L21.0304 146.321C20.4841 145.717 20.5245 144.789 21.1326 144.245C21.7383 143.701 22.6694 143.741 23.2133 144.347L32.2535 154.18C32.7999 154.785 32.7595 155.713 32.1514 156.255C31.8901 156.499 31.5243 156.639 31.1609 156.639Z" fill="#4A4E59"/>
<path d="M39.6336 160.005C39.2701 160.005 38.9257 159.884 38.6431 159.621C38.035 159.077 37.9946 158.13 38.5409 157.545L50.593 144.446C51.1393 143.843 52.0894 143.802 52.6761 144.347C53.2818 144.891 53.3222 145.838 52.7783 146.423L40.7262 159.522C40.4435 159.844 40.0374 160.005 39.6336 160.005Z" fill="#4A4E59"/>
<path d="M41.8377 123.891C41.8377 123.891 39.776 125.039 41.0895 127.056C41.0895 127.056 42.1418 128.788 45.3365 129.271C46.2058 126.168 45.0538 124.497 45.0538 124.497C43.7379 122.48 41.8377 123.891 41.8377 123.891Z" fill="#4A4E59"/>
<path d="M22.1231 130.32C22.1231 130.32 19.6955 129.311 18.8072 131.851C18.8072 131.851 18.0186 133.967 19.7977 137.111C23.1325 135.721 23.8 133.544 23.8 133.544C24.6693 130.985 22.1231 130.32 22.1231 130.32Z" fill="#4A4E59"/>
<path d="M28.4724 110.429C28.4724 110.429 26.0662 110.429 26.2278 112.868C26.2278 112.868 26.3085 114.924 28.8975 116.958C31.2229 114.621 31.0187 112.565 31.0187 112.565C30.8571 110.108 28.4724 110.429 28.4724 110.429Z" fill="#4A4E59"/>
<path d="M34.5387 112.404C34.5387 112.404 32.6979 113.13 33.5672 114.965C33.5672 114.965 34.256 116.515 36.8641 117.282C37.9353 114.782 37.1467 113.27 37.1467 113.27C36.2774 111.438 34.5387 112.404 34.5387 112.404Z" fill="#4A4E59"/>
<path d="M32.4556 116.979C32.4556 116.979 30.4747 117.019 30.6552 119.034C30.6552 119.034 30.7573 120.729 32.9402 122.34C34.8 120.364 34.5981 118.672 34.5981 118.672C34.4176 116.676 32.4556 116.979 32.4556 116.979Z" fill="#4A4E59"/>
<path d="M205.876 96.2933C205.996 95.3331 206.088 94.3448 206.088 93.3565C206.088 81.3807 196.35 71.677 184.333 71.677C179.526 71.677 175.079 73.2351 171.475 75.8694C168.108 68.2337 160.478 62.9334 151.552 62.9334C139.535 62.9334 129.801 72.6371 129.801 84.6129C129.801 87.9964 130.581 91.2005 131.964 94.0775C124.902 97.3414 119.975 104.499 119.975 112.792C119.975 124.202 129.261 133.424 140.678 133.424C146.597 133.424 151.944 130.937 155.699 126.984C158.766 130.279 163.15 132.316 168.02 132.316C174.059 132.316 179.346 129.14 182.321 124.381C185.776 129.291 191.483 132.527 197.974 132.527C208.491 132.527 217.053 124.022 217.053 113.51C217.021 105.874 212.454 99.2864 205.876 96.2933Z" fill="#C1FF72"/>
<path d="M174.93 131.658L176.462 168.489H162.461L163.933 132.586L174.93 131.658Z" fill="#DB9483"/>
<mask id="mask2_427_443" style="mask-type:luminance" maskUnits="userSpaceOnUse" x="158" y="128" width="22" height="44">
<path d="M158.886 128.039H179.667V171.422H158.886V128.039Z" fill="white"/>
</mask>
<g mask="url(#mask2_427_443)">
<path d="M176.462 171.422H162.461C161.649 171.422 160.898 171.092 160.358 170.526C159.818 169.956 159.514 169.175 159.546 168.37L161.018 132.467C161.078 130.849 162.461 129.59 164.081 129.65C165.705 129.709 166.968 131.088 166.908 132.706L165.525 165.584H173.395L171.983 131.777C171.923 130.16 173.187 128.813 174.81 128.721C176.43 128.661 177.782 129.92 177.874 131.538L179.406 168.398C179.437 169.207 179.134 169.956 178.594 170.554C178.054 171.152 177.242 171.422 176.462 171.422Z" fill="#4A4E59"/>
</g>
<mask id="mask3_427_443" style="mask-type:luminance" maskUnits="userSpaceOnUse" x="117" y="60" width="103" height="78">
<path d="M117 60H220V137.043H117V60Z" fill="white"/>
</mask>
<g mask="url(#mask3_427_443)">
<path d="M140.679 136.357C127.638 136.357 117.032 125.788 117.032 112.792C117.032 104.587 121.359 96.9825 128.269 92.7303C127.338 90.1241 126.886 87.3984 126.886 84.5847C126.886 71.0191 137.943 60 151.552 60C160.206 60 168.14 64.4914 172.587 71.7085C176.162 69.7635 180.186 68.7436 184.333 68.7436C197.945 68.7436 208.999 79.7627 208.999 93.3282C208.999 93.7468 208.999 94.1653 208.971 94.5873C215.701 98.4773 219.968 105.694 219.968 113.541C219.968 125.636 210.111 135.46 197.974 135.46C192.115 135.46 186.528 133.124 182.441 129.02C178.746 132.945 173.579 135.221 168.048 135.221C163.573 135.221 159.246 133.694 155.759 130.937C151.492 134.471 146.265 136.357 140.679 136.357ZM151.584 65.8384C141.218 65.8384 132.776 74.2549 132.776 84.5847C132.776 87.4582 133.408 90.2121 134.668 92.7584C135 93.4795 135.06 94.2849 134.788 95.0059C134.52 95.755 133.976 96.3529 133.256 96.68C126.978 99.5852 122.919 105.874 122.919 112.76C122.919 122.524 130.881 130.49 140.707 130.49C145.634 130.49 150.201 128.513 153.596 124.951C154.168 124.349 154.948 124.05 155.731 124.05C156.543 124.05 157.323 124.381 157.863 124.979C160.538 127.824 164.141 129.382 168.02 129.382C172.855 129.382 177.274 126.924 179.826 122.823C180.338 121.986 181.269 121.476 182.229 121.444C183.221 121.416 184.153 121.894 184.725 122.703C187.76 127.015 192.687 129.621 197.945 129.621C206.836 129.621 214.078 122.404 214.078 113.541C214.078 107.281 210.383 101.534 204.644 98.9275C203.472 98.3894 202.781 97.1619 202.961 95.8746C203.081 95.0059 203.141 94.1653 203.141 93.3282C203.141 82.9984 194.698 74.582 184.333 74.582C180.306 74.582 176.462 75.8411 173.215 78.2046C172.495 78.7462 171.595 78.894 170.724 78.6865C169.852 78.4473 169.16 77.8459 168.8 77.0369C165.797 70.2419 159.035 65.8384 151.584 65.8384Z" fill="#4A4E59"/>
</g>
<path d="M163.301 150.102C162.701 150.102 162.101 149.862 161.678 149.384L148.249 134.77C147.437 133.874 147.497 132.495 148.4 131.686C149.3 130.877 150.684 130.937 151.492 131.837L164.925 146.447C165.736 147.348 165.676 148.726 164.773 149.532C164.385 149.894 163.841 150.102 163.301 150.102Z" fill="#4A4E59"/>
<path d="M175.89 155.103C175.35 155.103 174.839 154.924 174.419 154.533C173.515 153.724 173.455 152.317 174.267 151.449L192.175 131.985C192.986 131.088 194.398 131.028 195.27 131.837C196.17 132.646 196.23 134.053 195.422 134.922L177.514 154.385C177.094 154.864 176.49 155.103 175.89 155.103Z" fill="#4A4E59"/>
<path d="M179.165 101.442C179.165 101.442 176.102 103.148 178.054 106.145C178.054 106.145 179.617 108.719 184.364 109.437C185.656 104.826 183.944 102.343 183.944 102.343C181.989 99.346 179.165 101.442 179.165 101.442Z" fill="#4A4E59"/>
<path d="M149.872 110.995C149.872 110.995 146.265 109.497 144.945 113.27C144.945 113.27 143.773 116.415 146.417 121.085C151.372 119.021 152.364 115.785 152.364 115.785C153.655 111.983 149.872 110.995 149.872 110.995Z" fill="#4A4E59"/>
<path d="M159.306 81.4404C159.306 81.4404 155.731 81.4404 155.971 85.063C155.971 85.063 156.091 88.1194 159.938 91.1406C163.393 87.6692 163.09 84.6128 163.09 84.6128C162.85 80.962 159.306 81.4404 159.306 81.4404Z" fill="#4A4E59"/>
<path d="M168.32 84.3736C168.32 84.3736 165.585 85.4534 166.877 88.1791C166.877 88.1791 167.9 90.4829 171.775 91.6224C173.367 87.9083 172.195 85.6609 172.195 85.6609C170.904 82.9386 168.32 84.3736 168.32 84.3736Z" fill="#4A4E59"/>
<path d="M165.225 91.1723C165.225 91.1723 162.282 91.2321 162.55 94.2252C162.55 94.2252 162.702 96.7434 165.945 99.1386C168.708 96.2018 168.408 93.6871 168.408 93.6871C168.14 90.7221 165.225 91.1723 165.225 91.1723Z" fill="#4A4E59"/>
<path d="M159.218 55.6979C159.421 54.226 159.575 52.7099 159.575 51.1938C159.575 32.8103 143.119 17.9213 122.807 17.9213C114.681 17.9213 107.164 20.311 101.073 24.3562C95.3845 12.6354 82.4839 4.50079 67.4012 4.50079C47.0891 4.50079 30.6332 19.3932 30.6332 37.7733C30.6332 42.9675 31.9538 47.8829 34.2901 52.2952C22.3564 57.3058 14.0269 68.289 14.0269 81.0195C14.0269 98.5259 29.719 112.681 49.0191 112.681C59.0228 112.681 68.0634 108.867 74.4102 102.799C79.5908 107.857 87.0023 110.981 95.2303 110.981C105.437 110.981 114.376 106.11 119.402 98.8013C125.245 106.338 134.891 111.304 145.862 111.304C163.638 111.304 178.112 98.2506 178.112 82.1208C178.059 70.4034 170.339 60.2904 159.218 55.6979Z" fill="#25C578"/>
<path d="M106.911 109.968L109.5 166.496H85.8354L88.3223 111.396L106.911 109.968Z" fill="#DB9483"/>
<mask id="mask4_427_443" style="mask-type:luminance" maskUnits="userSpaceOnUse" x="80" y="104" width="35" height="67">
<path d="M80.189 104.985H114.861V171H80.189V104.985Z" fill="white"/>
</mask>
<g mask="url(#mask4_427_443)">
<path d="M109.5 170.999H85.8362C84.4667 170.999 83.1951 170.493 82.2809 169.619C81.3667 168.746 80.8588 167.553 80.9114 166.312L83.3983 111.209C83.4998 108.727 85.8362 106.8 88.5788 106.892C91.3215 106.983 93.4546 109.098 93.3531 111.579L91.0167 162.035H104.32L101.935 110.155C101.833 107.674 103.966 105.603 106.709 105.467C109.452 105.376 111.735 107.303 111.889 109.785L114.478 166.356C114.531 167.597 114.023 168.746 113.108 169.667C112.194 170.585 110.821 170.999 109.5 170.999Z" fill="#4A4E59"/>
</g>
<mask id="mask5_427_443" style="mask-type:luminance" maskUnits="userSpaceOnUse" x="9" y="0" width="175" height="119">
<path d="M9 0H183.085V118.038H9V0Z" fill="white"/>
</mask>
<g mask="url(#mask5_427_443)">
<path d="M49.0187 117.185C26.976 117.185 9.04907 100.963 9.04907 81.0194C9.04907 68.4249 16.3628 56.755 28.0444 50.2283C26.4681 46.2307 25.7081 42.0462 25.7081 37.729C25.7081 16.9116 44.395 0 67.4009 0C82.0283 0 95.4331 6.89042 102.95 17.9688C108.992 14.9808 115.798 13.4171 122.807 13.4171C145.813 13.4171 164.5 30.3287 164.5 51.1461C164.5 51.7886 164.5 52.4345 164.447 53.077C175.824 59.0496 183.036 70.1279 183.036 82.1649C183.036 100.732 166.377 115.805 145.862 115.805C135.96 115.805 126.513 112.222 119.605 105.926C113.36 111.946 104.624 115.437 95.2826 115.437C87.713 115.437 80.4031 113.095 74.5114 108.867C67.2993 114.288 58.4619 117.185 49.0187 117.185ZM67.4535 8.9606C49.933 8.9606 35.6629 21.8746 35.6629 37.729C35.6629 42.138 36.7276 46.3667 38.8608 50.2725C39.4176 51.3773 39.5192 52.6181 39.0639 53.7194C38.605 54.8684 37.6945 55.7896 36.4755 56.2927C25.8586 60.7526 19.0039 70.4033 19.0039 80.9718C19.0039 95.9526 32.4613 108.177 49.0676 108.177C57.3972 108.177 65.1172 105.144 70.8546 99.6748C71.8177 98.757 73.1382 98.2981 74.4588 98.2981C75.832 98.2981 77.1525 98.8012 78.0667 99.7224C82.5851 104.087 88.6799 106.477 95.2299 106.477C103.405 106.477 110.873 102.707 115.188 96.4115C116.054 95.1265 117.626 94.3447 119.252 94.2971C120.926 94.2529 122.502 94.9872 123.465 96.2279C128.597 102.846 136.923 106.844 145.813 106.844C160.843 106.844 173.081 95.769 173.081 82.1649C173.081 72.5619 166.836 63.7372 157.137 59.7396C155.154 58.9136 153.988 57.0304 154.293 55.052C154.496 53.7194 154.597 52.4345 154.597 51.1461C154.597 35.2917 140.327 22.3777 122.807 22.3777C116.001 22.3777 109.5 24.3085 104.015 27.939C102.796 28.765 101.272 28.9962 99.801 28.6733C98.33 28.3061 97.1599 27.3883 96.5504 26.1476C91.4715 15.7151 80.0456 8.9606 67.4535 8.9606Z" fill="#4A4E59"/>
</g>
<path d="M87.2575 138.278C86.2417 138.278 85.2259 137.911 84.5148 137.176L61.8137 114.748C60.4442 113.371 60.5458 111.257 62.0695 110.016C63.5932 108.775 65.9295 108.867 67.299 110.247L90.0001 132.672C91.3696 134.049 91.268 136.163 89.7443 137.404C89.0859 137.955 88.1717 138.278 87.2575 138.278Z" fill="#4A4E59"/>
<path d="M108.537 145.953C107.623 145.953 106.757 145.678 106.046 145.079C104.523 143.839 104.421 141.68 105.794 140.344L136.061 110.474C137.431 109.098 139.82 109.006 141.291 110.247C142.814 111.487 142.916 113.646 141.546 114.978L111.279 144.848C110.568 145.586 109.553 145.953 108.537 145.953Z" fill="#4A4E59"/>
<path d="M114.071 63.6014C114.071 63.6014 108.891 66.2189 112.194 70.8148C112.194 70.8148 114.835 74.7682 122.856 75.8696C125.042 68.7922 122.145 64.9782 122.145 64.9782C118.845 60.3857 114.071 63.6014 114.071 63.6014Z" fill="#4A4E59"/>
<path d="M64.5568 78.2595C64.5568 78.2595 58.462 75.9615 56.2273 81.754C56.2273 81.754 54.2483 86.5776 58.7178 93.7468C67.0963 90.5752 68.7742 85.6122 68.7742 85.6122C70.9563 79.779 64.5568 78.2595 64.5568 78.2595Z" fill="#4A4E59"/>
<path d="M80.5048 32.902C80.5048 32.902 74.459 32.902 74.8653 38.4633C74.8653 38.4633 75.0685 43.1509 81.5696 47.791C87.4085 42.4609 86.9006 37.7732 86.9006 37.7732C86.4943 32.1678 80.5048 32.902 80.5048 32.902Z" fill="#4A4E59"/>
<path d="M95.738 37.4062C95.738 37.4062 91.118 39.0617 93.3001 43.2428C93.3001 43.2428 95.0269 46.7815 101.577 48.5288C104.271 42.8281 102.288 39.3812 102.288 39.3812C100.106 35.2 95.738 37.4062 95.738 37.4062Z" fill="#4A4E59"/>
<path d="M90.5084 47.839C90.5084 47.839 85.531 47.9308 85.9862 52.5267C85.9862 52.5267 86.242 56.3849 91.7273 60.063C96.4 55.5589 95.8921 51.6973 95.8921 51.6973C95.4331 47.149 90.5084 47.839 90.5084 47.839Z" fill="#4A4E59"/>
</svg>
