<svg width="20" height="22" viewBox="0 0 20 22" fill="none" xmlns="http://www.w3.org/2000/svg">
<path d="M0.332031 16.1641C0.332031 15.7995 0.419922 15.4577 0.595703 15.1387C0.777995 14.8132 1.00911 14.5039 1.28906 14.2109C1.56901 13.9115 1.85872 13.6185 2.1582 13.332C2.39909 13.1107 2.58464 12.8242 2.71484 12.4727C2.85156 12.1146 2.95247 11.7142 3.01758 11.2715C3.08919 10.8223 3.15104 10.3438 3.20312 9.83594C3.26172 8.63802 3.43099 7.57357 3.71094 6.64258C3.99089 5.71159 4.40104 4.93034 4.94141 4.29883C5.48828 3.66081 6.1849 3.1888 7.03125 2.88281C7.22656 2.22526 7.58789 1.68164 8.11523 1.25195C8.64258 0.815755 9.26758 0.597656 9.99023 0.597656C10.7259 0.597656 11.3574 0.815755 11.8848 1.25195C12.4121 1.68164 12.7734 2.22526 12.9688 2.88281C13.8086 3.1888 14.4987 3.66081 15.0391 4.29883C15.5859 4.93034 15.9993 5.71159 16.2793 6.64258C16.5658 7.57357 16.7383 8.63802 16.7969 9.83594C16.849 10.3438 16.9076 10.8223 16.9727 11.2715C17.0443 11.7142 17.1452 12.1146 17.2754 12.4727C17.4121 12.8242 17.6009 13.1107 17.8418 13.332C18.1413 13.6185 18.431 13.9115 18.7109 14.2109C18.9909 14.5039 19.2188 14.8132 19.3945 15.1387C19.5768 15.4577 19.668 15.7995 19.668 16.1641C19.668 16.6198 19.5117 16.9876 19.1992 17.2676C18.8867 17.541 18.4603 17.6777 17.9199 17.6777H13.9746C13.9486 18.3027 13.7663 18.8919 13.4277 19.4453C13.0957 19.9987 12.6335 20.4447 12.041 20.7832C11.4551 21.1283 10.7715 21.3008 9.99023 21.3008C9.22201 21.3008 8.54167 21.1283 7.94922 20.7832C7.36328 20.4382 6.90104 19.9889 6.5625 19.4355C6.23047 18.8887 6.05143 18.3027 6.02539 17.6777H2.08008C1.53971 17.6777 1.11328 17.541 0.800781 17.2676C0.488281 16.9876 0.332031 16.6198 0.332031 16.1641ZM2.98828 15.6562H16.9727V15.5488C16.8685 15.4577 16.7448 15.347 16.6016 15.2168C16.4648 15.0801 16.3151 14.9303 16.1523 14.7676C15.9961 14.6048 15.8398 14.4323 15.6836 14.25C15.5273 14.0612 15.3874 13.8268 15.2637 13.5469C15.14 13.2669 15.0358 12.9512 14.9512 12.5996C14.873 12.248 14.8047 11.8672 14.7461 11.457C14.6875 11.0469 14.6452 10.6139 14.6191 10.1582C14.5801 8.91471 14.4303 7.92188 14.1699 7.17969C13.9095 6.43099 13.5742 5.86784 13.1641 5.49023C12.7604 5.11263 12.3079 4.85547 11.8066 4.71875C11.6895 4.69271 11.5951 4.64714 11.5234 4.58203C11.4583 4.51693 11.4225 4.41276 11.416 4.26953C11.3835 3.78776 11.2402 3.40039 10.9863 3.10742C10.7389 2.81445 10.4069 2.66797 9.99023 2.66797C9.58008 2.66797 9.2513 2.81445 9.00391 3.10742C8.75651 3.40039 8.61654 3.78776 8.58398 4.26953C8.57096 4.41276 8.5319 4.51693 8.4668 4.58203C8.40169 4.64714 8.31055 4.69271 8.19336 4.71875C7.68555 4.85547 7.22656 5.11263 6.81641 5.49023C6.41276 5.86784 6.08073 6.43099 5.82031 7.17969C5.56641 7.92188 5.41667 8.91471 5.37109 10.1582C5.34505 10.6139 5.30599 11.0469 5.25391 11.457C5.20182 11.8672 5.13021 12.248 5.03906 12.5996C4.95443 12.9512 4.85026 13.2669 4.72656 13.5469C4.60938 13.8268 4.4694 14.0612 4.30664 14.25C4.1569 14.4323 3.9974 14.6048 3.82812 14.7676C3.66536 14.9303 3.50911 15.0801 3.35938 15.2168C3.21615 15.347 3.09245 15.4577 2.98828 15.5488V15.6562ZM8.10547 17.6777C8.13802 18.2572 8.33008 18.7194 8.68164 19.0645C9.0332 19.4095 9.4694 19.582 9.99023 19.582C10.5241 19.582 10.9635 19.4095 11.3086 19.0645C11.6602 18.7194 11.8555 18.2572 11.8945 17.6777H8.10547Z" fill="white"/>
</svg>
