<svg width="28" height="29" viewBox="0 0 28 29" fill="none" xmlns="http://www.w3.org/2000/svg">
<path d="M4.33203 19.1641C4.33203 18.7995 4.41992 18.4577 4.5957 18.1387C4.77799 17.8132 5.00911 17.5039 5.28906 17.2109C5.56901 16.9115 5.85872 16.6185 6.1582 16.332C6.39909 16.1107 6.58464 15.8242 6.71484 15.4727C6.85156 15.1146 6.95247 14.7142 7.01758 14.2715C7.08919 13.8223 7.15104 13.3438 7.20312 12.8359C7.26172 11.638 7.43099 10.5736 7.71094 9.64258C7.99089 8.71159 8.40104 7.93034 8.94141 7.29883C9.48828 6.66081 10.1849 6.1888 11.0312 5.88281C11.2266 5.22526 11.5879 4.68164 12.1152 4.25195C12.6426 3.81576 13.2676 3.59766 13.9902 3.59766C14.7259 3.59766 15.3574 3.81576 15.8848 4.25195C16.4121 4.68164 16.7734 5.22526 16.9688 5.88281C17.8086 6.1888 18.4987 6.66081 19.0391 7.29883C19.5859 7.93034 19.9993 8.71159 20.2793 9.64258C20.5658 10.5736 20.7383 11.638 20.7969 12.8359C20.849 13.3438 20.9076 13.8223 20.9727 14.2715C21.0443 14.7142 21.1452 15.1146 21.2754 15.4727C21.4121 15.8242 21.6009 16.1107 21.8418 16.332C22.1413 16.6185 22.431 16.9115 22.7109 17.2109C22.9909 17.5039 23.2188 17.8132 23.3945 18.1387C23.5768 18.4577 23.668 18.7995 23.668 19.1641C23.668 19.6198 23.5117 19.9876 23.1992 20.2676C22.8867 20.541 22.4603 20.6777 21.9199 20.6777H17.9746C17.9486 21.3027 17.7663 21.8919 17.4277 22.4453C17.0957 22.9987 16.6335 23.4447 16.041 23.7832C15.4551 24.1283 14.7715 24.3008 13.9902 24.3008C13.222 24.3008 12.5417 24.1283 11.9492 23.7832C11.3633 23.4382 10.901 22.9889 10.5625 22.4355C10.2305 21.8887 10.0514 21.3027 10.0254 20.6777H6.08008C5.53971 20.6777 5.11328 20.541 4.80078 20.2676C4.48828 19.9876 4.33203 19.6198 4.33203 19.1641ZM6.98828 18.6562H20.9727V18.5488C20.8685 18.4577 20.7448 18.347 20.6016 18.2168C20.4648 18.0801 20.3151 17.9303 20.1523 17.7676C19.9961 17.6048 19.8398 17.4323 19.6836 17.25C19.5273 17.0612 19.3874 16.8268 19.2637 16.5469C19.14 16.2669 19.0358 15.9512 18.9512 15.5996C18.873 15.248 18.8047 14.8672 18.7461 14.457C18.6875 14.0469 18.6452 13.6139 18.6191 13.1582C18.5801 11.9147 18.4303 10.9219 18.1699 10.1797C17.9095 9.43099 17.5742 8.86784 17.1641 8.49023C16.7604 8.11263 16.3079 7.85547 15.8066 7.71875C15.6895 7.69271 15.5951 7.64714 15.5234 7.58203C15.4583 7.51693 15.4225 7.41276 15.416 7.26953C15.3835 6.78776 15.2402 6.40039 14.9863 6.10742C14.7389 5.81445 14.4069 5.66797 13.9902 5.66797C13.5801 5.66797 13.2513 5.81445 13.0039 6.10742C12.7565 6.40039 12.6165 6.78776 12.584 7.26953C12.571 7.41276 12.5319 7.51693 12.4668 7.58203C12.4017 7.64714 12.3105 7.69271 12.1934 7.71875C11.6855 7.85547 11.2266 8.11263 10.8164 8.49023C10.4128 8.86784 10.0807 9.43099 9.82031 10.1797C9.56641 10.9219 9.41667 11.9147 9.37109 13.1582C9.34505 13.6139 9.30599 14.0469 9.25391 14.457C9.20182 14.8672 9.13021 15.248 9.03906 15.5996C8.95443 15.9512 8.85026 16.2669 8.72656 16.5469C8.60938 16.8268 8.4694 17.0612 8.30664 17.25C8.1569 17.4323 7.9974 17.6048 7.82812 17.7676C7.66536 17.9303 7.50911 18.0801 7.35938 18.2168C7.21615 18.347 7.09245 18.4577 6.98828 18.5488V18.6562ZM12.1055 20.6777C12.138 21.2572 12.3301 21.7194 12.6816 22.0645C13.0332 22.4095 13.4694 22.582 13.9902 22.582C14.5241 22.582 14.9635 22.4095 15.3086 22.0645C15.6602 21.7194 15.8555 21.2572 15.8945 20.6777H12.1055Z" fill="#1C1C1C"/>
</svg>
