<svg width="26" height="26" viewBox="0 0 26 26" fill="none" xmlns="http://www.w3.org/2000/svg">
<path d="M13 2.03125C10.8306 2.03125 8.70989 2.67456 6.90609 3.87982C5.10228 5.08508 3.69639 6.79816 2.86619 8.80244C2.03599 10.8067 1.81878 13.0122 2.24201 15.1399C2.66524 17.2676 3.70991 19.2221 5.24392 20.7561C6.77793 22.2901 8.73237 23.3348 10.8601 23.758C12.9878 24.1812 15.1933 23.964 17.1976 23.1338C19.2018 22.3036 20.9149 20.8977 22.1202 19.0939C23.3254 17.2901 23.9687 15.1694 23.9687 13C23.9655 10.0919 22.8089 7.30383 20.7525 5.24749C18.6962 3.19114 15.9081 2.03448 13 2.03125ZM13 21.5312C11.3127 21.5312 9.66325 21.0309 8.26029 20.0935C6.85733 19.156 5.76386 17.8236 5.11815 16.2648C4.47244 14.7059 4.30349 12.9905 4.63267 11.3356C4.96185 9.68073 5.77438 8.16061 6.96749 6.96749C8.16061 5.77438 9.68073 4.96186 11.3356 4.63268C12.9905 4.3035 14.7059 4.47244 16.2648 5.11815C17.8236 5.76386 19.156 6.85733 20.0935 8.26029C21.0309 9.66325 21.5312 11.3127 21.5312 13C21.5288 15.2619 20.6292 17.4304 19.0298 19.0298C17.4304 20.6292 15.2619 21.5288 13 21.5312ZM18.2812 13C18.2812 13.3232 18.1528 13.6332 17.9243 13.8618C17.6957 14.0903 17.3857 14.2187 17.0625 14.2187H14.2187V17.0625C14.2187 17.3857 14.0903 17.6957 13.8618 17.9243C13.6332 18.1528 13.3232 18.2812 13 18.2812C12.6768 18.2812 12.3668 18.1528 12.1382 17.9243C11.9096 17.6957 11.7812 17.3857 11.7812 17.0625V14.2187H8.9375C8.61426 14.2187 8.30427 14.0903 8.07571 13.8618C7.84715 13.6332 7.71875 13.3232 7.71875 13C7.71875 12.6768 7.84715 12.3668 8.07571 12.1382C8.30427 11.9097 8.61426 11.7812 8.9375 11.7812H11.7812V8.9375C11.7812 8.61427 11.9096 8.30427 12.1382 8.07571C12.3668 7.84715 12.6768 7.71875 13 7.71875C13.3232 7.71875 13.6332 7.84715 13.8618 8.07571C14.0903 8.30427 14.2187 8.61427 14.2187 8.9375V11.7812H17.0625C17.3857 11.7812 17.6957 11.9097 17.9243 12.1382C18.1528 12.3668 18.2812 12.6768 18.2812 13Z" fill="#666666"/>
</svg>
