<svg width="44" height="45" viewBox="0 0 44 45" fill="none" xmlns="http://www.w3.org/2000/svg">
<path d="M23.7497 1.9575C23.3785 2.2875 20.491 8.01781 20.491 8.01781L18.3425 16.6838L26.7025 15.9172C26.7025 15.9172 33.6566 2.98531 33.7975 2.68625C34.0485 2.14313 34.1825 1.91969 33.2235 1.91969C32.2644 1.91625 24.0969 1.64813 23.7497 1.9575Z" fill="#176CC7"/>
<path d="M28.0776 15.381C27.6617 15.1575 15.4104 14.965 15.1217 15.381C14.8604 15.7591 15.0082 17.7425 15.1079 17.9797C15.2867 18.3922 19.2432 20.19 19.2432 20.19L19.1676 21.0081C19.1676 21.0081 19.4907 21.0906 21.7904 21.0906C24.0901 21.0906 24.5439 20.9738 24.5439 20.9738L24.5507 20.2347C24.5507 20.2347 28.112 18.5022 28.2907 18.2616C28.442 18.0622 28.4936 15.6044 28.0776 15.381ZM24.4304 18.516C24.4304 18.516 24.5439 18.0106 24.3067 17.8938C24.0695 17.7735 19.9995 17.8285 19.6764 17.8456C19.3532 17.8628 19.3532 18.4403 19.3532 18.4403L16.7407 16.8831V16.6288L26.4689 16.6975L26.4861 16.9863L24.4304 18.516Z" fill="#CECDD2"/>
<path d="M20.3706 18.0896C20.0474 18.0896 19.8618 18.4265 19.8618 19.0074C19.8618 19.5505 20.0474 20.0077 20.4565 19.9734C20.7934 19.9459 20.9103 19.4302 20.8793 18.973C20.8484 18.4299 20.7796 18.0896 20.3706 18.0896Z" fill="#FDFFFF"/>
<path d="M9.9585 32.0871C9.9585 40.3234 17.5382 43.8193 22.4916 43.6715C28.2632 43.4996 34.3544 39.1203 33.9591 31.2621C33.5844 23.8165 27.2697 20.5062 21.8454 20.544C15.541 20.5921 9.9585 24.8925 9.9585 32.0871Z" fill="#CECDD2"/>
<path d="M22.1821 42.1384C22.0961 42.1384 22.0068 42.1384 21.9208 42.135C19.3427 42.0491 16.7955 40.9628 14.9324 39.1581C12.9386 37.2263 11.8455 34.6138 11.8593 31.8053C11.8902 24.9475 17.8852 21.7678 21.9518 21.7678H21.9861C27.4964 21.7919 32.0202 26.075 32.1474 31.8809C32.2024 34.4659 31.1436 37.1781 29.0674 39.22C27.1286 41.1209 24.5574 42.1384 22.1821 42.1384ZM21.9449 22.9091C18.2977 22.9091 12.9043 25.8928 12.8905 31.8053C12.8802 36.2259 16.3039 40.7703 22.0068 40.9628C24.1793 41.0316 26.4171 40.1997 28.2252 38.4225C30.1021 36.5766 31.1574 34.1978 31.1196 31.8947C31.0302 26.9 26.9464 22.9263 21.9896 22.9022C21.9827 22.9022 21.9552 22.9091 21.9449 22.9091Z" fill="#9B9B9D"/>
<path d="M19.9685 21.6304C19.7313 21.3038 17.301 21.3966 14.6851 23.6482C12.0863 25.886 11.6979 28.361 12.1654 28.4916C12.6982 28.6394 13.3479 26.2469 15.5926 24.236C17.6551 22.3969 20.4394 22.2801 19.9685 21.6304ZM30.2088 30.6538C29.3804 30.7707 30.2398 33.2526 28.3182 36.0301C26.651 38.4398 24.7604 39.3129 24.9804 39.8423C25.276 40.5504 28.3044 38.7869 29.7069 35.9132C30.9754 33.3144 30.8241 30.5679 30.2088 30.6538Z" fill="#FEFFFA"/>
<path d="M8.76907 1.77865C8.5525 1.97802 16.8334 16.7249 16.8334 16.7249C16.8334 16.7249 18.2222 16.9036 21.3228 16.9311C24.4234 16.9586 25.96 16.7524 25.96 16.7524C25.96 16.7524 19.5216 1.92646 19.1366 1.77865C18.9475 1.70302 16.3969 1.67552 13.9047 1.64802C11.4091 1.61709 8.97532 1.58615 8.76907 1.77865Z" fill="#2E9DF4"/>
<path d="M19.5421 30.1829C19.8996 30.1864 20.2193 29.7017 20.515 29.4061C21.144 28.7736 21.804 28.2717 22.5568 28.9523C24.4062 30.6332 20.6937 32.3382 19.2843 34.6689C18.2325 36.4082 18.0193 37.7454 18.3115 38.1029C18.6037 38.4604 25.7159 38.4432 25.8121 38.2645C25.9084 38.0857 26.0081 35.7036 25.8431 35.5901C25.6781 35.4767 22.1821 35.542 22.1821 35.542C22.1821 35.542 22.4743 34.8614 23.674 33.8232C24.9906 32.6854 26.0459 31.1214 25.764 29.272C25.1796 25.4495 21.3296 25.3086 19.6625 26.6389C18.0365 27.9348 18.3871 30.1692 19.5421 30.1829Z" fill="#9B9B9D"/>
</svg>
