<svg width="44" height="45" viewBox="0 0 44 45" fill="none" xmlns="http://www.w3.org/2000/svg">
<path d="M23.7497 1.9575C23.3785 2.2875 20.491 8.01781 20.491 8.01781L18.3425 16.6838L26.7025 15.9172C26.7025 15.9172 33.6566 2.98531 33.7975 2.68625C34.0485 2.14313 34.1825 1.91969 33.2235 1.91969C32.2644 1.91625 24.0969 1.64813 23.7497 1.9575Z" fill="#176CC7"/>
<path d="M28.0776 15.381C27.6617 15.1575 15.4104 14.965 15.1217 15.381C14.8604 15.7591 15.0082 17.7425 15.1079 17.9797C15.2867 18.3922 19.2432 20.19 19.2432 20.19L19.1676 21.0081C19.1676 21.0081 19.4907 21.0906 21.7904 21.0906C24.0901 21.0906 24.5439 20.9738 24.5439 20.9738L24.5507 20.2347C24.5507 20.2347 28.112 18.5022 28.2907 18.2616C28.442 18.0622 28.4936 15.6044 28.0776 15.381ZM24.4304 18.516C24.4304 18.516 24.5439 18.0106 24.3067 17.8938C24.0695 17.7735 19.9995 17.8285 19.6764 17.8456C19.3532 17.8628 19.3532 18.4403 19.3532 18.4403L16.7889 17.1203L16.7407 16.6288L26.4689 16.6975L26.4345 17.1616L24.4304 18.516Z" fill="#F79429"/>
<path d="M20.3706 18.3372C20.0474 18.3372 19.8618 18.674 19.8618 19.255C19.8618 19.7981 20.0474 20.2553 20.4565 20.2209C20.7934 20.1934 20.9103 19.6778 20.8793 19.2206C20.8484 18.674 20.7796 18.3372 20.3706 18.3372Z" fill="#FDFFFF"/>
<path d="M10.0752 32.1559C10.0752 40.3921 17.538 43.8193 22.4914 43.6715C28.263 43.4996 34.4711 39.1203 33.9589 31.2621C33.4777 23.8887 27.2696 20.5062 21.8452 20.544C15.5408 20.5921 10.0752 24.9612 10.0752 32.1559Z" fill="#F79429"/>
<path d="M22.2304 42.4273C22.1445 42.4273 22.0551 42.4273 21.9692 42.4238C19.391 42.3379 16.8438 41.2516 14.9807 39.447C12.987 37.5151 11.8938 34.9026 11.9076 32.0941C11.9385 25.2363 17.9335 22.0566 22.0001 22.0566H22.0345C27.5448 22.0807 32.0685 26.3638 32.1957 32.1698C32.2507 34.7548 31.4257 37.326 29.3495 39.3679C27.4107 41.2654 24.6057 42.4273 22.2304 42.4273ZM21.9932 23.1979C18.346 23.1979 12.9526 26.1816 12.9388 32.0941C12.9285 36.5148 16.3523 41.0591 22.0551 41.2516C24.2276 41.3204 26.6785 40.516 28.4832 38.7423C30.3601 36.8963 31.2023 34.4901 31.1645 32.187C31.082 27.1923 26.9982 23.2185 22.0413 23.1979C22.031 23.191 22.0035 23.1979 21.9932 23.1979Z" fill="#D25116"/>
<path d="M19.9685 21.6304C19.7313 21.3038 17.301 21.3966 14.6851 23.6482C12.0863 25.886 11.6979 28.361 12.1654 28.4916C12.6982 28.6394 13.3479 26.2469 15.5926 24.236C17.6551 22.3969 20.4394 22.2801 19.9685 21.6304ZM30.4151 30.6263C29.5866 30.7432 30.446 33.2251 28.5244 36.0026C26.8573 38.4123 24.9666 39.2854 25.1866 39.8148C25.4823 40.5229 28.5107 38.7594 29.9132 35.8857C31.1816 33.2835 31.0304 30.5369 30.4151 30.6263Z" fill="#FEFFFA"/>
<path d="M8.76907 1.77865C8.5525 1.97802 16.8334 16.7249 16.8334 16.7249C16.8334 16.7249 18.2222 16.9036 21.3228 16.9311C24.4234 16.9586 25.96 16.7524 25.96 16.7524C25.96 16.7524 19.5216 1.92646 19.1366 1.77865C18.9475 1.70302 16.3969 1.67552 13.9047 1.64802C11.4091 1.61709 8.97532 1.58615 8.76907 1.77865Z" fill="#2E9DF4"/>
<path d="M25.7641 29.2753C25.3653 25.8206 21.3434 25.5319 19.6763 26.8588C18.0538 28.1513 18.2084 29.9525 19.3463 30.1622C20.2434 30.3272 20.4772 29.6156 20.7385 29.2891C21.3297 28.5569 22.2716 28.4881 22.8869 29.0759C23.5847 29.7463 23.155 31.3481 22.1066 31.4134C21.3263 31.4616 20.9309 31.4203 20.8313 31.5544C20.6903 31.7434 20.7109 33.2319 20.8553 33.3969C21.0203 33.5859 21.6803 33.4691 22.2475 33.4897C23.0278 33.5206 23.8563 34.6756 23.3097 35.5419C22.7425 36.4391 21.2334 36.0369 20.6903 35.4938C19.9719 34.7753 19.2534 35.1878 19.0128 35.4697C18.6347 35.9166 18.2325 36.9341 19.6281 37.9241C21.0203 38.9141 25.245 39.1031 26.0975 36.0369C26.84 33.3591 25.1075 32.2591 25.1075 32.2591C25.1075 32.2591 25.9909 31.245 25.7641 29.2753Z" fill="#D25116"/>
</svg>
