<svg width="24" height="24" viewBox="0 0 24 24" fill="none" xmlns="http://www.w3.org/2000/svg">
<path d="M15.735 10.1578C15.8052 10.9254 15.6372 11.6961 15.2537 12.3648C14.8703 13.0335 14.2901 13.5678 13.5921 13.8949C12.8942 14.2221 12.1123 14.3262 11.3531 14.1931C10.5938 14.06 9.89401 13.6961 9.34894 13.1511C8.80388 12.606 8.44002 11.9062 8.30692 11.1469C8.17382 10.3877 8.27792 9.60585 8.60508 8.90788C8.93223 8.20991 9.46652 7.62971 10.1352 7.24627C10.8039 6.86283 11.5746 6.69478 12.3422 6.765C13.2151 6.84485 14.0324 7.22795 14.6522 7.84776C15.272 8.46757 15.6552 9.28491 15.735 10.1578ZM20.25 3.75V20.25C20.25 20.6478 20.092 21.0294 19.8107 21.3107C19.5294 21.592 19.1478 21.75 18.75 21.75H5.25C4.85218 21.75 4.47064 21.592 4.18934 21.3107C3.90804 21.0294 3.75 20.6478 3.75 20.25V3.75C3.75 3.35218 3.90804 2.97064 4.18934 2.68934C4.47064 2.40804 4.85218 2.25 5.25 2.25H18.75C19.1478 2.25 19.5294 2.40804 19.8107 2.68934C20.092 2.97064 20.25 3.35218 20.25 3.75ZM17.25 10.5C17.2501 9.49365 16.961 8.50848 16.417 7.6618C15.8731 6.81512 15.0973 6.14261 14.1819 5.72437C13.2666 5.30612 12.2504 5.15976 11.2542 5.30271C10.2581 5.44566 9.32403 5.8719 8.56327 6.53067C7.80251 7.18944 7.24711 8.05299 6.96322 9.01846C6.67934 9.98394 6.67892 11.0107 6.96202 11.9764C7.24512 12.9421 7.79981 13.8061 8.56003 14.4655C9.32025 15.1249 10.254 15.5519 11.25 15.6956V18.7247C11.2476 18.9182 11.3185 19.1054 11.4483 19.2489C11.5782 19.3923 11.7575 19.4813 11.9503 19.4981C12.0529 19.5049 12.1558 19.4906 12.2526 19.456C12.3494 19.4213 12.4381 19.3672 12.5131 19.2968C12.5881 19.2265 12.6478 19.1415 12.6885 19.0471C12.7293 18.9527 12.7502 18.8509 12.75 18.7481V15.6956C13.9987 15.5136 15.1403 14.8887 15.9664 13.9348C16.7925 12.981 17.2481 11.7619 17.25 10.5Z" fill="#1C1C1C"/>
</svg>
