<svg width="44" height="45" viewBox="0 0 44 45" fill="none" xmlns="http://www.w3.org/2000/svg">
<path d="M23.7497 1.9575C23.3785 2.2875 20.491 8.01781 20.491 8.01781L18.3425 16.6838L26.7025 15.9172C26.7025 15.9172 33.6566 2.98531 33.7975 2.68625C34.0485 2.14313 34.1825 1.91969 33.2235 1.91969C32.2644 1.91625 24.0969 1.64813 23.7497 1.9575Z" fill="#176CC7"/>
<path d="M28.0776 15.381C27.6616 15.1575 15.4104 14.965 15.1216 15.381C14.8604 15.7591 14.8982 17.4881 15.0254 17.7116C15.1526 17.935 19.2707 19.8497 19.2707 19.8497L19.2673 20.5475C19.2673 20.5475 19.4941 21.0941 21.7904 21.0941C24.0866 21.0941 24.3238 20.63 24.3238 20.63L24.3444 19.9253C24.3444 19.9253 27.9504 18.1241 28.1394 17.966C28.3319 17.8044 28.4935 15.6044 28.0776 15.381ZM24.3032 18.2444C24.3032 18.2444 24.2929 17.7631 24.0557 17.6428C23.8185 17.5225 19.9994 17.5431 19.6763 17.5603C19.3532 17.5775 19.3532 18.155 19.3532 18.155L16.7407 16.8831V16.6288L26.4688 16.6975L26.486 16.9863L24.3032 18.2444Z" fill="#FCC417"/>
<path d="M20.3706 18.0896C20.0474 18.0896 19.8618 18.4265 19.8618 19.0074C19.8618 19.5505 20.0474 20.0077 20.4565 19.9734C20.7934 19.9459 20.9103 19.4302 20.8793 18.973C20.8484 18.4299 20.7796 18.0896 20.3706 18.0896Z" fill="#FDFFFF"/>
<path d="M9.96191 31.6849C9.96191 39.9211 17.4075 43.589 22.3575 43.4136C27.8163 43.2177 34.3544 38.9621 33.9591 31.104C33.5844 23.6583 27.3213 20.128 21.8969 20.1658C15.5925 20.2105 9.96191 24.4902 9.96191 31.6849Z" fill="#FCC417"/>
<path d="M22.1821 41.9802C22.0961 41.9802 22.0068 41.9802 21.9208 41.9768C19.3427 41.8909 16.7955 40.8046 14.9324 38.9999C12.9386 37.0681 11.8455 34.4556 11.8593 31.6471C11.8902 24.7893 17.8852 21.6096 21.9518 21.6096H21.9861C27.4964 21.6337 32.0202 25.9168 32.1474 31.7227C32.2024 34.3077 31.1436 37.0199 29.0674 39.0618C27.1286 40.9627 24.5574 41.9802 22.1821 41.9802ZM21.9449 22.7509C18.2977 22.7509 12.9043 25.7346 12.8905 31.6471C12.8802 36.0677 16.3039 40.6121 22.0068 40.8046C24.1793 40.8734 26.4171 40.0415 28.2252 38.2643C30.1021 36.4184 31.1574 34.0396 31.1196 31.7365C31.0371 26.7418 26.9533 22.7681 21.9964 22.7474C21.9827 22.7474 21.9552 22.7509 21.9449 22.7509Z" fill="#FA912C"/>
<path d="M19.8757 21.3347C19.6385 21.0081 16.9504 21.07 14.4101 23.5519C11.9591 25.9478 11.6944 28.2063 12.1654 28.3369C12.6982 28.4847 13.3479 26.0922 15.5926 24.0813C17.6551 22.2388 20.3501 21.9844 19.8757 21.3347ZM30.2741 30.2275C29.4457 30.3444 30.3051 32.8263 28.3835 35.6038C26.7163 38.0135 24.8257 38.8866 25.0457 39.416C25.3413 40.1241 28.3697 38.3606 29.7722 35.4869C31.0441 32.8847 30.8929 30.1381 30.2741 30.2275Z" fill="#FEFFFA"/>
<path d="M19.1984 26.9757C19.0197 27.2404 19.1812 29.5607 19.2878 29.6638C19.4941 29.8701 21.0616 29.131 21.0616 29.131L21.0031 35.3357C21.0031 35.3357 19.8516 35.322 19.7312 35.3666C19.4941 35.456 19.525 37.8485 19.7003 37.9654C19.8756 38.0823 24.5747 38.1441 24.7534 37.907C24.9322 37.6698 24.8875 35.5763 24.805 35.4801C24.6572 35.3013 23.5331 35.3735 23.5331 35.3735C23.5331 35.3735 23.6294 26.2366 23.5984 25.9445C23.5675 25.6523 23.2444 25.4701 22.8594 25.5595C22.4744 25.6488 19.3119 26.8038 19.1984 26.9757Z" fill="#FA912C"/>
<path d="M8.76907 1.77865C8.5525 1.97802 16.8334 16.7249 16.8334 16.7249C16.8334 16.7249 18.2222 16.9036 21.3228 16.9311C24.4234 16.9586 25.96 16.7524 25.96 16.7524C25.96 16.7524 19.5216 1.92646 19.1366 1.77865C18.9475 1.70302 16.3969 1.67552 13.9047 1.64802C11.4091 1.61709 8.97532 1.58615 8.76907 1.77865Z" fill="#2E9DF4"/>
</svg>
