<svg width="393" height="136" viewBox="0 0 393 136" fill="none" xmlns="http://www.w3.org/2000/svg">
<path d="M358.142 77.1739C358.297 91.7082 359.817 107.157 357.728 121.558C357.521 122.935 355.132 122.935 354.935 121.558C352.815 107.178 354.056 91.6979 354.252 77.1739C354.48 61.221 355.401 45.3401 356.621 29.4387C356.694 28.5239 358.111 28.493 358.08 29.4387C357.625 45.3401 357.976 61.2621 358.142 77.1739ZM318.432 29.0995C318.391 28.2155 317.077 28.2052 317.046 29.0995C316.415 44.9084 316.508 60.6557 317.542 76.4543C318.535 91.6979 318.556 109.357 324.028 123.789C324.39 124.745 325.776 124.611 325.828 123.542C326.635 108.154 322.807 91.8418 321.525 76.4543C320.211 60.6968 319.166 44.8981 318.432 29.0995ZM275.919 35.8733C275.868 35.2154 274.854 35.1949 274.875 35.8733C275.309 48.6808 275.506 61.4883 276.085 74.2958C276.643 86.7846 276.137 101 279.757 113.016C280.15 114.332 281.846 113.921 282.001 112.718C283.615 100.373 280.781 86.6716 279.664 74.2958C278.495 61.478 276.892 48.7013 275.919 35.8733ZM233.407 82.4161C232.796 65.5279 233.769 48.0949 237.689 31.6178C237.854 30.9189 236.841 30.6516 236.603 31.3197C230.872 47.8276 229.217 65.0345 229.424 82.4161C229.6 97.043 229.859 117.118 237.068 130.275C237.668 131.354 239.52 130.902 239.447 129.637C239.034 123.028 236.965 116.521 235.868 109.984C234.337 100.877 233.738 91.626 233.407 82.4161ZM259.152 33.8381C259.131 33.2111 258.221 33.2213 258.169 33.8381C256.959 48.6911 256.101 63.5955 255.873 78.4998C255.666 91.3587 253.546 107.013 257.466 119.379C257.725 120.17 258.956 120.253 259.173 119.379C262.255 106.695 259.814 91.5335 259.804 78.4998C259.793 63.616 259.638 48.7219 259.152 33.8381ZM200.575 39.9334C200.596 39.2139 199.407 39.0392 199.303 39.7587C197.193 54.2931 196.624 68.7041 197.524 83.372C198.3 95.9328 198.869 111.937 204.775 123.285C205.437 124.56 207.723 124.015 207.578 122.535C206.306 109.439 202.561 96.6421 201.517 83.372C200.389 68.9919 200.048 54.3445 200.575 39.9334ZM170.599 76.5571C170.31 58.826 170.817 40.6632 173.847 23.1583C173.982 22.4388 172.916 22.1201 172.72 22.8499C168.148 40.3549 166.555 58.4971 166.607 76.5571C166.627 85.9829 167.103 95.4806 168.386 104.824C169.255 111.063 169.493 119.759 173.775 124.755C174.53 125.629 175.844 124.868 175.895 123.881C176.206 118.217 173.537 111.906 172.668 106.253C171.148 96.4571 170.765 86.4557 170.599 76.5571ZM153.925 55.506C152.57 67.9023 148.65 79.9081 145.867 92.0269C143.84 100.908 140.261 113.397 143.716 122.185C144.13 123.234 145.919 123.542 146.167 122.185C148.164 111.618 147.76 100.507 149.788 89.7449C151.929 78.3662 154.049 67.0492 155.094 55.506C155.156 54.7556 153.998 54.7762 153.925 55.506ZM113.409 26.7251C113.409 25.9953 112.333 26.0158 112.271 26.7251C111.03 43.161 111.185 59.3194 112.54 75.7348C113.74 90.4542 114.205 106.16 117.464 120.582C117.867 122.36 120.515 121.887 120.577 120.16C121.063 105.544 117.939 90.3 116.553 75.7348C115.022 59.4736 113.45 43.0685 113.409 26.7251ZM93.4557 96.5187C92.9903 83.6187 92.7006 70.7393 91.5421 57.8701C91.4801 57.1814 90.4354 57.1609 90.4354 57.8701C90.5285 70.7598 89.4424 83.629 89.5665 96.5187C89.6286 103.508 87.8494 120.088 94.0764 125.228C94.5729 125.629 95.5141 125.567 95.659 124.806C96.3106 121.26 94.9866 117.632 94.5315 114.096C93.7867 108.278 93.673 102.378 93.4557 96.5187ZM75.8921 104.793C73.9061 94.1135 73.182 83.1767 72.4476 72.3531C71.227 54.3239 69.7582 36.0069 70.3478 17.9263C70.3685 17.2479 69.3341 17.2582 69.2824 17.9263C67.7722 39.7279 67.5964 61.663 69.2928 83.4543C69.8617 90.8448 69.7789 124.282 81.7673 124.426C82.6879 124.436 82.9362 123.254 82.2121 122.781C77.7746 119.924 76.7403 109.357 75.8921 104.793ZM40.4544 75.9712C39.5131 60.2651 40.1131 44.487 39.9579 28.7603C39.9476 28.0716 38.9132 28.0819 38.8822 28.7603C38.0754 46.3578 36.2445 63.7805 37.0306 81.4293C37.6099 94.4321 39.0373 114.291 50.4258 122.884C51.4809 123.676 52.5359 122.206 52.0704 121.25C44.7885 106.243 41.4578 92.7361 40.4544 75.9712ZM303.32 40.6119C303.382 39.9334 302.265 39.7895 302.13 40.4474C299.689 52.6176 298.593 64.942 298.251 77.3383C297.962 88.0489 296.896 104.053 302.772 113.613C303.351 114.568 304.83 114.157 304.861 113.057C305.12 101.34 302.048 89.2104 301.799 77.3383C301.541 65.1064 302.182 52.7923 303.32 40.6119ZM379.295 45.186C374.992 57.2842 371.495 69.6086 368.268 82.0255C365.413 92.9931 360.841 104.485 359.91 115.761C359.807 116.963 361.586 117.354 362.145 116.357C367.668 106.51 369.406 93.9593 372.064 83.0637C375.095 70.5954 377.712 58.0346 380.495 45.5149C380.67 44.7234 379.553 44.4356 379.295 45.186ZM15.0295 49.2667C14.7916 48.5986 13.7676 48.8555 13.9538 49.5545C17.0983 61.8172 19.8497 74.1827 22.9114 86.4557C25.6422 97.4027 27.8454 109.398 33.4414 119.307C33.8965 120.109 35.4067 119.811 35.2929 118.803C33.9896 107.527 29.728 96.3543 26.6145 85.4484C23.1183 73.2473 19.4049 61.1902 15.0295 49.2667Z" fill="#56A313"/>
<mask id="mask0_1442_4624" style="mask-type:luminance" maskUnits="userSpaceOnUse" x="0" y="0" width="393" height="64">
<path d="M0 0H393V63.1535H0V0Z" fill="white"/>
</mask>
<g mask="url(#mask0_1442_4624)">
<path d="M21.6908 50.7674C16.0845 60.6454 5.327 50.716 2.07906 44.6823C0.568878 41.8659 -0.134497 39.6456 3.72372 38.9364C2.73072 37.4151 4.96497 34.8557 6.10278 33.8586C8.0474 32.1729 9.36106 32.4812 11.1712 34.2184C12.7435 31.5972 14.595 32.5326 16.6844 33.6222C17.4602 34.0231 17.574 34.5987 18.4842 34.8043C19.291 34.9893 20.284 34.0745 21.1115 34.4445C23.8837 35.6882 23.0769 48.3107 21.6908 50.7674ZM45.8848 12.7869C45.9158 10.0835 41.5715 7.91468 39.8234 10.3816C36.4099 6.90735 32.5931 9.60042 32.2724 14.0615C28.1039 12.3038 29.0245 19.5298 29.3348 21.565C30.1209 26.6942 34.4136 36.5106 41.2818 34.2492C46.5158 32.5121 49.2879 22.2537 49.4534 17.4227C49.5154 15.5725 48.5949 12.2832 45.8848 12.7869ZM75.4472 4.95436C73.5543 3.46393 67.7204 0.164402 66.593 4.28624C53.2806 -1.59329 58.4524 17.9777 62.2382 23.9189C65.331 28.7706 71.2994 29.4181 74.7024 24.6487C77.5056 20.7119 78.9123 15.6444 79.9053 10.9984C80.6087 7.68855 80.4949 0.801695 75.4472 4.95436ZM119.522 16.8265C119.749 14.3801 118.932 11.0292 116.367 10.2788C113.967 9.57986 110.895 11.3376 110.026 13.527C107.709 11.132 104.048 12.3654 104.368 15.8397C97.3863 16.5078 103.075 24.2478 104.472 27.5782C106.075 31.3814 107.958 36.1302 113.047 35.6266C118.85 35.0612 121.787 28.1641 123.08 23.3639C124.166 19.3345 125.19 13.5167 119.522 16.8265ZM184.067 16.3434C184.119 13.1569 180.757 10.5769 177.923 12.6738C177.664 7.9558 167.331 9.59014 167.382 14.0306C163.307 11.1114 163.752 18.7178 163.917 20.6605C164.259 24.7926 166.669 30.5282 170.568 32.471C176.257 35.2976 181.471 29.7162 183.725 25.0496C184.356 23.7339 189.032 15.2024 184.067 16.3434ZM161.911 45.669C160.845 42.8424 158.497 42.6676 155.839 42.7601C154.163 42.8115 151.515 42.1845 149.984 42.6779C144.574 44.4253 146.716 55.177 148.464 58.5896C153.056 67.5322 162.407 57.0992 164.155 51.5486C164.993 48.8555 166.265 44.5692 161.911 45.669ZM207.371 27.4857C206.389 24.1553 203.854 20.825 200.596 23.9703C198.248 22.007 197.1 23.6722 195.321 24.6796C194.338 25.2243 192.104 25.1935 191.359 26.3036C190.304 27.9071 191.369 33.7455 191.535 35.6574C191.907 39.9334 194.193 46.368 199.344 46.4811C205.799 46.625 210.836 38.2785 212.212 32.9335C213.174 29.2125 211.664 25.6561 207.371 27.4857ZM243.492 27.0129C243.574 23.8675 239.747 21.9556 237.316 24.1039C235.341 19.8176 232.082 24.3095 230.893 26.3756C227.293 24.474 227.397 28.6061 227.273 31.0114C227.066 35.1332 227.459 41.8967 231.151 44.5384C236.923 48.6602 242.923 40.6118 245.033 36.1302C245.829 34.4342 249.191 23.5694 243.492 27.0129ZM281.391 25.101C280.677 22.2332 275.433 18.245 273.912 22.6546C271.916 21.1025 269.072 23.148 267.551 25.286C267.117 24.6898 266.403 24.474 265.255 25.1113C265.441 21.5034 261.262 19.2523 259.442 23.0349C257.435 21.7912 254.404 21.6576 254.973 24.8543C254.642 22.9938 251.777 24.7823 251.405 25.5327C250.525 27.2596 251.704 30.6824 252.025 32.4504C252.625 35.791 253.494 42.6573 257.973 42.8937C262.09 43.1096 265.369 37.8776 267.003 33.4372C267.789 36.2947 269.268 39.0289 271.14 40.8585C277.781 47.3445 284.877 36.8909 284.856 30.446C284.846 28.6266 284.504 23.4153 281.391 25.101ZM320.935 21.8117C319.849 18.7692 313.332 20.1568 314.905 23.4564C309.567 21.3081 308.688 26.098 309.474 30.3227C308.43 29.5209 307.064 29.3976 305.461 30.8263C305.368 26.7559 300.134 28.7192 299.275 31.4533C296.793 29.2434 295.769 33.3858 295.717 35.2463C295.634 38.5149 297.889 45.2271 300.93 46.81C306.63 49.7703 311.491 40.139 311.677 35.6677C313.684 38.7205 316.86 42.3079 320.283 39.5428C323.873 36.6545 325.848 30.1582 325.579 25.7588C325.393 22.8294 324.245 19.8279 320.935 21.8117ZM361.814 19.3859C362.817 18.1319 361.834 17.2171 360.572 16.7237C358.648 15.9631 358.224 17.3199 356.755 17.731C355.328 18.1319 354.511 17.5974 353.021 17.5871C351.356 17.5768 351.128 18.173 349.794 18.7384C346.101 20.311 345.657 21.4109 346.846 25.6869C348.067 30.0965 351.335 39.7484 357.79 37.6824C362.248 36.2639 366.168 29.2845 366.975 24.9571C367.513 22.0482 365.641 17.4227 361.814 19.3859ZM389.99 41.0949C390.424 37.2609 386.173 36.1405 383.07 36.6545C382.573 33.7147 377.298 33.3549 377.784 37.0451C374.898 33.2419 372.406 42.791 372.364 44.4973C372.292 47.5192 372.778 51.6822 374.857 54.0566C378.322 57.9934 383.453 54.4575 386.67 51.97C388.656 50.4385 397.241 41.1875 389.99 41.0949Z" fill="#FFC900"/>
</g>
<mask id="mask1_1442_4624" style="mask-type:luminance" maskUnits="userSpaceOnUse" x="14" y="23" width="374" height="113">
<path d="M14.3364 23.6826H387.704V136H14.3364V23.6826Z" fill="white"/>
</mask>
<g mask="url(#mask1_1442_4624)">
<path d="M381.767 80.6893C379.481 93.5585 378.612 106.654 375.767 119.4C375.416 120.941 375.033 122.473 374.599 124.015C375.374 106.736 371.837 89.2414 364.027 73.7613C363.944 82.0564 364.844 90.3104 365.93 98.5643C364.762 100.486 363.769 102.501 362.91 104.598C363.593 87.3192 362.517 69.9479 359.538 52.926C360.665 70.2974 360.014 87.792 357.728 105.071C357.387 96.3441 356.042 87.6995 353.497 79.2708C353.849 86.2091 353.415 93.1371 352.339 99.9314C351.17 107.209 349.267 114.353 346.857 121.322C348.543 109.727 348.408 97.8345 346.857 86.2502C344.353 67.9435 338.437 50.233 330.979 33.2934C336.927 59.9362 338.178 87.6173 334.475 114.651C332.489 96.6833 331.103 78.6747 330.41 60.666C330.886 71.315 330.151 81.9742 329.158 92.582C328.3 102.069 327.39 111.444 326.79 120.849C326.407 120.129 326.014 119.4 325.621 118.67C324.421 116.193 323.252 113.623 322.301 110.971C321.525 100.836 321.742 90.6085 322.559 80.4735C319.497 89.6731 317.605 99.253 316.87 108.915C316.218 100.836 315.66 92.7876 315.308 84.7084C314.057 95.0181 312.805 105.369 311.553 115.679C309.878 108.103 308.409 100.486 307.199 92.839C306.599 99.5511 305.947 106.222 305.347 112.934C304.995 109.265 304.737 105.626 304.613 101.946C304.137 87.4837 305.988 72.9493 310.043 59.0831C306.382 66.3194 303.403 73.8436 301.034 81.5836C300.517 83.1665 300.165 84.7906 299.731 86.3735C296.627 65.5896 290.804 44.9291 283.987 24.9983C288.777 39.1523 290.928 54.0362 291.497 69.0125C291.497 69.0536 291.497 69.0536 291.497 69.0947C291.621 73.0727 291.662 77.0506 291.58 81.0285C291.58 82.8684 291.404 84.7084 291.362 86.5483C291.104 86.2091 290.928 85.8185 290.669 85.4793C290.887 86.2913 291.062 87.1033 291.28 87.9154C290.721 99.9828 289.511 111.999 287.959 123.974C287.349 121.62 286.832 119.266 286.449 116.912C283.853 100.959 286.915 84.6261 291.497 69.0947C286.966 82.5704 284.287 96.6833 283.553 110.889C281.743 98.6568 278.64 86.5894 274.275 74.9948C276.519 82.3545 276.261 90.187 276.002 97.8345C275.961 98.3998 275.961 98.996 275.961 99.5511C275.878 99.8081 275.785 100.065 275.743 100.281C274.75 103.909 273.582 107.548 272.33 111.094C271.513 113.366 270.613 115.586 269.703 117.817C269.103 107.98 269.837 98.0504 273.24 88.861C269.92 95.4909 267.541 102.542 265.731 109.727C264.696 88.7685 264.479 67.7688 265.213 46.8101C262.845 60.8408 260.507 74.8715 258.738 88.9844C257.663 78.4588 256.194 67.9846 254.642 57.5001C255.335 81.2855 252.573 105.153 246.574 128.209C245.757 117.56 245.922 106.859 247.174 96.303C244.112 105.708 242.178 115.463 241.268 125.3C240.668 118.454 240.016 111.66 239.416 104.814C242.219 94.1649 247.008 84.1122 251.798 74.1417C241.268 85.6026 233.458 99.4175 229.01 114.26C227.593 94.7611 226.724 75.2107 226.724 55.6602C224.356 65.1579 223.011 74.779 222.194 84.4925C220.425 68.2416 217.705 52.0318 213.826 36.1201C216.494 61.9098 215.46 88.049 210.971 113.582C210.03 103.868 209.812 94.1136 210.847 84.4103C209.078 89.0255 207.692 93.7744 206.616 98.5643C204.847 86.6716 201.868 74.8715 198.155 63.4516C199.758 73.7613 199.976 84.2355 199.065 94.6275C198.765 98.3998 198.248 102.121 197.596 105.749C196.438 87.0211 194.669 68.3238 192.849 49.6368C190.304 75.2929 187.201 100.918 183.788 126.502C182.629 122.607 181.636 118.711 180.726 114.733C180.643 100.147 183.105 85.5204 188.06 71.7467C183.446 78.1607 179.826 85.2634 177.188 92.7053C175.678 77.3076 175.978 61.735 178.398 46.4709C175.502 58.7439 171.541 70.801 169.72 83.2488C168.262 93.5174 168.344 104.043 169.896 114.312C166.441 106.14 162.045 98.3998 156.604 91.3383C158.466 97.4953 160.018 103.786 161.311 110.077C162.428 115.422 163.297 120.808 164.031 126.245C161.011 117.56 157.68 108.915 154.36 100.363C152.943 106.859 152.208 113.541 152.032 120.212C151.081 117.477 150.222 114.733 149.488 111.958C151.774 97.927 156.697 84.2767 164.114 72.127C161.052 77.1328 156.78 81.5425 153.677 86.5483C151.039 90.7832 148.712 95.1826 146.591 99.6744C144.916 90.3926 144.088 80.9463 144.264 71.4897C141.285 83.3002 139.092 95.3573 138.565 107.507C134.127 83.3824 134.21 58.4458 138.999 34.4035C135.937 47.581 132.917 61.0155 131.148 74.4398C127.569 86.6305 124.197 98.8624 121.829 111.269C121.487 112.986 121.229 114.651 120.918 116.357C118.415 101.73 114.919 87.3192 110.264 73.196C111.95 80.4735 113.326 87.792 114.402 95.1414C113.285 100.445 112.467 105.749 110.699 110.889C108.713 95.5732 108.795 80.0418 111.04 64.7776C106.851 75.2518 104.224 86.3324 103.189 97.5364C102.837 100.959 102.713 104.382 102.672 107.805C102.579 107.507 102.538 107.168 102.455 106.818C98.4828 92.0269 92.6179 77.8215 86.7943 63.6675C88.9458 72.4354 90.7146 81.3266 92.0076 90.2692C93.6936 101.607 94.6452 113.068 94.8625 124.529C90.6732 112.04 87.4356 99.1605 85.3669 86.1166C84.9738 95.7479 84.767 105.369 84.7152 114.99C82.6051 107.209 80.9605 99.3352 80.4433 91.256C79.5847 76.5366 82.7292 61.5706 89.5044 48.4342C83.2464 57.0273 78.8503 66.9567 76.523 77.3076C75.0956 63.5339 72.8924 49.8938 69.7065 36.4181C72.4683 50.0171 72.9441 64.0889 71.258 77.8626C69.5306 74.3986 67.6791 70.9758 65.6414 67.6865C66.1172 65.2401 66.6344 62.8041 67.1516 60.368C66.0758 61.992 65.0828 63.6675 64.0898 65.3327C57.9663 56.0508 50.3327 47.7969 41.0543 41.5884C47.7364 53.1419 53.4358 65.2401 58.0491 77.7393C52.8772 90.444 50.2809 104.084 50.2809 117.776C49.1638 113.284 47.9122 108.833 46.5779 104.382C45.6676 96.601 45.5332 88.7685 46.9606 81.0696C45.2746 84.8317 43.9402 88.7685 42.73 92.7465C39.3683 82.9918 35.6135 73.3708 31.8587 63.8319C35.1791 77.3076 37.8581 90.9477 39.9269 104.68C38.9752 109.943 38.5098 115.247 38.3753 120.592C37.6823 119.482 36.9996 118.372 36.3479 117.22C35.4377 106.14 34.5791 95.0181 33.7103 83.8963C32.076 89.9712 30.483 96.1282 29.0142 102.326C24.3492 90.6085 21.5874 78.1196 21.0289 65.4971C14.8536 87.2267 15.0709 110.714 21.546 132.361C21.846 133.389 22.1977 134.407 22.539 135.435H384.953C385.004 135.311 385.004 135.229 385.004 135.095C386.163 116.912 384.311 98.7391 381.767 80.6893ZM61.4211 113.88C60.6867 105.749 60.9867 97.5775 61.9797 89.4572C63.314 93.8566 64.5243 98.3073 65.6414 102.758C64.3898 106.52 62.9727 110.241 61.4211 113.88ZM365.02 120.726C364.937 113.746 365.279 106.777 366.096 99.8903C366.706 104.855 367.399 109.861 367.865 114.826C367.916 114.99 367.916 115.206 367.916 115.381C367.089 117.169 366.096 118.968 365.02 120.726Z" fill="#A8E607"/>
</g>
</svg>
