<svg width="50" height="50" viewBox="0 0 50 50" fill="none" xmlns="http://www.w3.org/2000/svg">
<circle cx="25" cy="25" r="25" fill="#DEDEDE"/>
<path d="M16.6667 35C16.6667 35 15 35 15 33.3333C15 31.6667 16.6667 26.6667 25 26.6667C33.3333 26.6667 35 31.6667 35 33.3333C35 35 33.3333 35 33.3333 35H16.6667ZM25 25C26.3261 25 27.5979 24.4732 28.5355 23.5355C29.4732 22.5979 30 21.3261 30 20C30 18.6739 29.4732 17.4021 28.5355 16.4645C27.5979 15.5268 26.3261 15 25 15C23.6739 15 22.4021 15.5268 21.4645 16.4645C20.5268 17.4021 20 18.6739 20 20C20 21.3261 20.5268 22.5979 21.4645 23.5355C22.4021 24.4732 23.6739 25 25 25Z" fill="#666666"/>
</svg>
