<svg width="26" height="26" viewBox="0 0 26 26" fill="none" xmlns="http://www.w3.org/2000/svg">
<path fill-rule="evenodd" clip-rule="evenodd" d="M13.7659 2.48406C13.5628 2.28096 13.2873 2.16687 13 2.16687C12.7127 2.16687 12.4372 2.28096 12.2341 2.48406L4.65075 10.0674L2.48408 12.2341C2.38061 12.334 2.29808 12.4535 2.2413 12.5857C2.18453 12.7179 2.15464 12.86 2.15339 13.0039C2.15214 13.1477 2.17955 13.2904 2.23402 13.4235C2.28849 13.5566 2.36893 13.6776 2.47065 13.7793C2.57237 13.881 2.69333 13.9615 2.82646 14.0159C2.9596 14.0704 3.10225 14.0978 3.2461 14.0966C3.38994 14.0953 3.5321 14.0654 3.66427 14.0087C3.79644 13.9519 3.91598 13.8694 4.01591 13.7659L4.33333 13.4485V20.5833C4.33333 21.4453 4.67574 22.2719 5.28523 22.8814C5.89473 23.4909 6.72138 23.8333 7.58333 23.8333H18.4167C19.2786 23.8333 20.1053 23.4909 20.7148 22.8814C21.3243 22.2719 21.6667 21.4453 21.6667 20.5833V13.4485L21.9841 13.7659C22.1884 13.9632 22.4621 14.0724 22.7461 14.07C23.0301 14.0675 23.3019 13.9536 23.5027 13.7527C23.7036 13.5518 23.8175 13.2801 23.82 12.9961C23.8224 12.712 23.7133 12.4384 23.5159 12.2341L13.7659 2.48406Z" fill="#25C578"/>
</svg>
