<svg width="26" height="26" viewBox="0 0 26 26" fill="none" xmlns="http://www.w3.org/2000/svg">
<path d="M21.9375 10.8334C21.9375 10.6556 21.9025 10.4795 21.8344 10.3152C21.7664 10.1509 21.6666 10.0016 21.5409 9.87584C21.4151 9.7501 21.2659 9.65035 21.1016 9.5823C20.9373 9.51424 20.7612 9.47922 20.5833 9.47922C20.4055 9.47922 20.2294 9.51424 20.0651 9.5823C19.9008 9.65035 19.7515 9.7501 19.6258 9.87584C19.5001 10.0016 19.4003 10.1509 19.3323 10.3152C19.2642 10.4795 19.2292 10.6556 19.2292 10.8334H21.9375ZM6.77084 10.8334C6.77084 10.4742 6.62817 10.1298 6.37421 9.87584C6.12026 9.62189 5.77582 9.47922 5.41667 9.47922C5.05752 9.47922 4.71309 9.62189 4.45913 9.87584C4.20518 10.1298 4.06251 10.4742 4.06251 10.8334H6.77084ZM21.7923 13.9577C22.0463 14.2117 22.3908 14.3544 22.75 14.3544C23.1092 14.3544 23.4537 14.2117 23.7077 13.9577C23.9617 13.7037 24.1043 13.3592 24.1043 13C24.1043 12.6409 23.9617 12.2964 23.7077 12.0424L21.7923 13.9577ZM13 3.25005L13.9577 2.29238C13.8319 2.1666 13.6826 2.06682 13.5183 1.99874C13.354 1.93067 13.1779 1.89563 13 1.89563C12.8221 1.89563 12.646 1.93067 12.4817 1.99874C12.3174 2.06682 12.1681 2.1666 12.0423 2.29238L13 3.25005ZM2.29234 12.0424C2.03835 12.2964 1.89566 12.6409 1.89566 13C1.89566 13.3592 2.03835 13.7037 2.29234 13.9577C2.54633 14.2117 2.89081 14.3544 3.25001 14.3544C3.6092 14.3544 3.95368 14.2117 4.20767 13.9577L2.29234 12.0424ZM7.58334 24.1042H18.4167V21.3959H7.58334V24.1042ZM21.9375 20.5834V10.8334H19.2292V20.5834H21.9375ZM6.77084 20.5834V10.8334H4.06251V20.5834H6.77084ZM23.7077 12.0424L13.9577 2.29238L12.0423 4.20772L21.7923 13.9577L23.7077 12.0424ZM12.0423 2.29238L2.29234 12.0424L4.20767 13.9577L13.9577 4.20772L12.0423 2.29238ZM18.4167 24.1042C19.3505 24.1042 20.246 23.7333 20.9063 23.073C21.5666 22.4127 21.9375 21.5172 21.9375 20.5834H19.2292C19.2292 20.7989 19.1436 21.0055 18.9912 21.1579C18.8388 21.3103 18.6322 21.3959 18.4167 21.3959V24.1042ZM7.58334 21.3959C7.36785 21.3959 7.16119 21.3103 7.00881 21.1579C6.85644 21.0055 6.77084 20.7989 6.77084 20.5834H4.06251C4.06251 21.5172 4.43345 22.4127 5.09373 23.073C5.75402 23.7333 6.64956 24.1042 7.58334 24.1042V21.3959Z" fill="#666666"/>
</svg>
