<svg width="24" height="24" viewBox="0 0 24 24" fill="none" xmlns="http://www.w3.org/2000/svg">
<path d="M20.9375 9.83338C20.9375 9.65555 20.9025 9.47946 20.8344 9.31517C20.7664 9.15087 20.6666 9.00159 20.5409 8.87584C20.4151 8.7501 20.2659 8.65035 20.1016 8.5823C19.9373 8.51424 19.7612 8.47922 19.5833 8.47922C19.4055 8.47922 19.2294 8.51424 19.0651 8.5823C18.9008 8.65035 18.7515 8.7501 18.6258 8.87584C18.5001 9.00159 18.4003 9.15087 18.3323 9.31517C18.2642 9.47946 18.2292 9.65555 18.2292 9.83338H20.9375ZM5.77084 9.83338C5.77084 9.47423 5.62817 9.1298 5.37421 8.87584C5.12026 8.62189 4.77582 8.47922 4.41667 8.47922C4.05752 8.47922 3.71309 8.62189 3.45913 8.87584C3.20518 9.1298 3.06251 9.47423 3.06251 9.83338H5.77084ZM20.7923 12.9577C21.0463 13.2117 21.3908 13.3544 21.75 13.3544C22.1092 13.3544 22.4537 13.2117 22.7077 12.9577C22.9617 12.7037 23.1043 12.3592 23.1043 12C23.1043 11.6409 22.9617 11.2964 22.7077 11.0424L20.7923 12.9577ZM12 2.25005L12.9577 1.29238C12.8319 1.1666 12.6826 1.06682 12.5183 0.998744C12.354 0.930668 12.1779 0.89563 12 0.89563C11.8221 0.89563 11.646 0.930668 11.4817 0.998744C11.3174 1.06682 11.1681 1.1666 11.0423 1.29238L12 2.25005ZM1.29234 11.0424C1.03835 11.2964 0.89566 11.6409 0.89566 12C0.89566 12.3592 1.03835 12.7037 1.29234 12.9577C1.54633 13.2117 1.89081 13.3544 2.25001 13.3544C2.6092 13.3544 2.95368 13.2117 3.20767 12.9577L1.29234 11.0424ZM6.58334 23.1042H17.4167V20.3959H6.58334V23.1042ZM20.9375 19.5834V9.83338H18.2292V19.5834H20.9375ZM5.77084 19.5834V9.83338H3.06251V19.5834H5.77084ZM22.7077 11.0424L12.9577 1.29238L11.0423 3.20772L20.7923 12.9577L22.7077 11.0424ZM11.0423 1.29238L1.29234 11.0424L3.20767 12.9577L12.9577 3.20772L11.0423 1.29238ZM17.4167 23.1042C18.3505 23.1042 19.246 22.7333 19.9063 22.073C20.5666 21.4127 20.9375 20.5172 20.9375 19.5834H18.2292C18.2292 19.7989 18.1436 20.0055 17.9912 20.1579C17.8388 20.3103 17.6322 20.3959 17.4167 20.3959V23.1042ZM6.58334 20.3959C6.36785 20.3959 6.16119 20.3103 6.00881 20.1579C5.85644 20.0055 5.77084 19.7989 5.77084 19.5834H3.06251C3.06251 20.5172 3.43345 21.4127 4.09373 22.073C4.75402 22.7333 5.64956 23.1042 6.58334 23.1042V20.3959Z" fill="#666666"/>
</svg>
