<svg width="65" height="28" viewBox="0 0 65 28" fill="none" xmlns="http://www.w3.org/2000/svg">
<path d="M14.5067 8.37358C14.5067 9.35367 14.4877 10.332 14.4535 11.3103C14.4231 12.285 14.366 13.2615 14.2862 14.2398C14.2254 15.0809 14.1436 15.9826 14.0429 16.9413C13.9403 17.8965 13.7768 18.8462 13.5487 19.7925C13.3244 20.7423 13.0279 21.6528 12.6591 22.5225C12.2942 23.3956 11.8095 24.169 11.2069 24.839C10.6025 25.5126 9.87071 26.0508 9.00966 26.4499C8.15241 26.8526 7.13359 27.0558 5.95322 27.0558C5.40009 27.0558 4.78234 26.972 4.09806 26.8063C3.41379 26.6442 2.76942 26.4089 2.16688 26.1007C1.56243 25.7959 1.05113 25.4182 0.631056 24.9673C0.209085 24.52 0 23.9997 0 23.4063C0 22.9644 0.167268 22.5545 0.501804 22.1803C0.840141 21.8097 1.27732 21.6243 1.80953 21.6243C2.13837 21.6243 2.45009 21.676 2.74471 21.7812C3.04313 21.8845 3.33966 22.0039 3.63427 22.1375C3.9327 22.2748 4.21971 22.3959 4.49342 22.5011C4.76713 22.6044 5.04845 22.6579 5.33737 22.6579C6.09197 22.6579 6.72493 22.4797 7.23814 22.1233C7.74944 21.7705 8.15811 21.3214 8.46223 20.7761C8.77016 20.2291 9.00205 19.6357 9.15411 18.9941C9.30618 18.3526 9.41262 17.745 9.47344 17.1694C9.06668 17.6113 8.59339 17.9143 8.05167 18.0746C7.50805 18.235 6.94162 18.317 6.34858 18.317C5.26324 18.317 4.34326 18.1424 3.58866 17.7895C2.83215 17.4331 2.2201 16.9449 1.74871 16.3212C1.27732 15.6993 0.929477 14.9776 0.707087 14.1543C0.482796 13.3275 0.372551 12.4347 0.372551 11.4742C0.372551 10.8808 0.437178 10.2108 0.570231 9.46415C0.701385 8.71929 0.899065 7.96373 1.16327 7.19748C1.43128 6.42767 1.76392 5.67924 2.15928 4.9522C2.55844 4.22515 3.02603 3.58364 3.55824 3.02766C4.09046 2.47169 4.6873 2.02263 5.35257 1.68049C6.01594 1.33479 6.74584 1.16016 7.54226 1.16016C8.31778 1.16016 9.00585 1.37221 9.6103 1.79454C10.2128 2.2133 10.5683 2.8067 10.6747 3.57651C10.8971 3.17379 11.1917 2.77641 11.5567 2.38615C11.9254 1.99234 12.3778 1.79454 12.91 1.79454C13.1933 1.79454 13.4309 1.92997 13.6247 2.20083C13.8224 2.46812 13.9764 2.81739 14.0885 3.24863C14.1988 3.6763 14.2862 4.14496 14.347 4.65282C14.4116 5.16247 14.4554 5.66142 14.4763 6.14968C14.4953 6.63438 14.5067 7.07987 14.5067 7.4826C14.5067 7.88711 14.5067 8.18469 14.5067 8.37358ZM9.846 10.2411C9.846 9.95598 9.79658 9.58354 9.70154 9.12201C9.6103 8.66226 9.47725 8.22212 9.30618 7.80335C9.13321 7.38103 8.91272 7.0175 8.64471 6.71279C8.3805 6.4045 8.06307 6.24947 7.69432 6.24947C7.22673 6.24947 6.81427 6.4045 6.45502 6.71279C6.09958 7.0175 5.79735 7.38637 5.55025 7.81761C5.30695 8.24528 5.11688 8.70503 4.98002 9.19329C4.84697 9.68333 4.78234 10.0985 4.78234 10.4407C4.78234 10.6937 4.80135 11.0305 4.84317 11.4528C4.88308 11.8716 4.96862 12.2832 5.10167 12.686C5.23853 13.0905 5.4172 13.4344 5.64149 13.7195C5.86958 14.0046 6.1661 14.1472 6.53105 14.1472C7.08227 14.1472 7.56127 14.0242 7.96803 13.7765C8.3786 13.5306 8.72074 13.2134 8.99445 12.8285C9.27196 12.4436 9.48295 12.0231 9.62551 11.5669C9.77187 11.1071 9.846 10.6652 9.846 10.2411Z" fill="white"/>
<path d="M27.3187 7.42562C27.0336 7.44522 26.7884 7.42205 26.5812 7.35434C26.3778 7.2884 26.1744 7.21712 25.9729 7.1405C25.7847 7.06031 25.6004 6.98725 25.4179 6.91953C25.2354 6.8536 25.032 6.83044 24.8097 6.84826C24.3991 6.86786 24.0341 6.97478 23.7148 7.16901C23.3993 7.35968 23.1142 7.60025 22.8557 7.88893C22.601 8.17404 22.3805 8.4948 22.1942 8.85119C22.0117 9.20402 21.8692 9.55329 21.7684 9.89899C21.7076 10.1271 21.662 10.4764 21.6316 10.9468C21.6011 11.4172 21.5859 11.9215 21.5859 12.4579C21.565 13.0139 21.5555 13.5413 21.5555 14.0403C21.5555 14.5357 21.5346 14.9277 21.4947 15.2164C21.4738 15.5211 21.4225 15.8793 21.3426 16.2927C21.2609 16.7061 21.1317 17.0964 20.9549 17.4617C20.7819 17.8234 20.5519 18.1281 20.263 18.3741C19.9779 18.6253 19.6129 18.7518 19.1682 18.7518C18.8184 18.7518 18.5143 18.6538 18.2558 18.4596C18.0011 18.2689 17.7882 18.0177 17.6171 17.704C17.4442 17.3868 17.2997 17.018 17.1838 16.5992C17.0716 16.1769 16.9861 15.7439 16.9253 15.3019C16.8644 14.8422 16.8188 14.3807 16.7884 13.9191C16.758 13.4594 16.7371 13.0246 16.7276 12.6147C16.7162 12.2013 16.7162 11.8235 16.7276 11.4814C16.7371 11.1357 16.7428 10.8577 16.7428 10.6474C16.7219 9.97384 16.6858 9.29669 16.6363 8.61597C16.585 7.93704 16.5603 7.26167 16.5603 6.59165C16.5603 6.16932 16.5793 5.70066 16.6211 5.18746C16.661 4.67068 16.7732 4.18599 16.9557 3.73337C17.1419 3.28253 17.4137 2.90475 17.7692 2.60003C18.1284 2.29175 18.6245 2.13672 19.2594 2.13672C19.6034 2.13672 19.8981 2.24364 20.1414 2.45747C20.3885 2.66775 20.5899 2.92613 20.742 3.23441C20.8941 3.53913 21.01 3.86523 21.0917 4.21094C21.1773 4.55307 21.2305 4.8667 21.2514 5.15182C21.7418 4.40695 22.293 3.80108 22.9013 3.3342C23.5133 2.86376 24.3116 2.61072 25.2962 2.57152C25.7866 2.54835 26.2713 2.59112 26.7484 2.69982C27.2293 2.80496 27.6703 2.97781 28.0714 3.22016C28.4705 3.45894 28.7975 3.76901 29.0522 4.15391C29.305 4.53525 29.4418 4.98431 29.4627 5.50108C29.5027 6.11408 29.3069 6.58452 28.8773 6.91241C28.4515 7.23673 27.9307 7.4078 27.3187 7.42562Z" fill="white"/>
<path d="M42.7688 13.0566C42.7688 13.7088 42.5483 14.3449 42.1073 14.9668C41.6701 15.5905 41.1208 16.1465 40.4574 16.6348C39.7922 17.1248 39.0832 17.5186 38.3286 17.818C37.5721 18.1138 36.8783 18.2599 36.2453 18.2599C35.16 18.2599 34.1925 18.0069 33.341 17.4972C32.4932 16.9894 31.7842 16.3425 31.2121 15.5585C30.6381 14.7744 30.2028 13.9101 29.9044 12.9639C29.6097 12.0141 29.4634 11.0875 29.4634 10.184C29.4634 9.22533 29.604 8.20069 29.8892 7.11191C30.1781 6.01956 30.6133 5.01452 31.1969 4.09681C31.7785 3.17553 32.5141 2.4075 33.4018 1.7945C34.2932 1.1815 35.352 0.875 36.5799 0.875C37.2736 0.875 37.937 0.985482 38.5719 1.20288C39.2048 1.42207 39.758 1.73391 40.2293 2.13664C40.7007 2.54114 41.0771 3.0205 41.3622 3.57647C41.6454 4.13245 41.788 4.75614 41.788 5.44398C41.788 6.34209 41.5827 7.18675 41.1721 7.97438C40.7654 8.75845 40.2255 9.43916 39.5527 10.013C38.8779 10.5885 38.1005 11.0536 37.2185 11.41C36.3404 11.7629 35.4432 11.9571 34.527 11.9945C34.6069 12.5505 34.8464 12.955 35.2417 13.2063C35.6409 13.4539 36.118 13.5769 36.6711 13.5769C37.0817 13.5769 37.4789 13.4825 37.8648 13.2918C38.2544 13.0976 38.6327 12.8819 38.9976 12.6432C39.3664 12.4008 39.7294 12.1852 40.0849 11.9945C40.4441 11.8056 40.8091 11.7094 41.1797 11.7094C41.5846 11.7094 41.9495 11.8359 42.2746 12.0872C42.6034 12.3349 42.7688 12.6574 42.7688 13.0566ZM37.804 6.01421C37.804 5.7683 37.7317 5.51169 37.5911 5.2444C37.4485 4.97354 37.2223 4.83811 36.9144 4.83811C36.4677 4.83811 36.0895 4.95037 35.7815 5.17312C35.4774 5.3923 35.2208 5.67029 35.0136 6.00708C34.8102 6.34031 34.6525 6.69849 34.5422 7.08339C34.4301 7.46474 34.3636 7.81757 34.3446 8.14545C34.6278 8.08843 34.968 8.01358 35.3634 7.91736C35.7625 7.81757 36.1408 7.68748 36.4962 7.52532C36.8555 7.36495 37.1615 7.16002 37.4162 6.91232C37.6747 6.66107 37.804 6.3617 37.804 6.01421Z" fill="white"/>
<path d="M59.2673 18.5451C58.6135 18.5451 58.0242 18.219 57.5034 17.5686C56.9807 16.9182 56.5245 16.1395 56.1349 15.2307C55.749 14.3183 55.4278 13.3846 55.1693 12.4294C54.9146 11.4707 54.7283 10.6742 54.6067 10.0416C54.4432 10.4265 54.2227 10.8969 53.9452 11.4529C53.6715 12.0053 53.354 12.5862 52.9948 13.1992C52.6394 13.8122 52.2573 14.4324 51.8467 15.0596C51.44 15.6833 51.018 16.2428 50.577 16.7418C50.136 17.2372 49.6951 17.6381 49.2541 17.9464C48.8169 18.2493 48.3949 18.4026 47.9844 18.4026C47.4312 18.4026 46.9446 18.1567 46.5246 17.6613C46.1083 17.1623 45.7567 16.5119 45.4677 15.7082C45.1826 14.901 44.9431 14.01 44.7455 13.0353C44.5516 12.057 44.4052 11.0787 44.3045 10.0986C44.2018 9.12029 44.1315 8.2097 44.0916 7.36861C44.0498 6.52396 44.0308 5.84324 44.0308 5.33003C44.0308 4.85068 44.0555 4.38915 44.1068 3.94722C44.1562 3.50529 44.2589 3.11326 44.4109 2.77112C44.5668 2.42542 44.793 2.15099 45.0876 1.95141C45.386 1.74827 45.7795 1.64491 46.2661 1.64491C46.7375 1.64491 47.1404 1.80886 47.475 2.13674C47.8133 2.46462 48.0946 2.8923 48.3189 3.41976C48.547 3.94366 48.7314 4.53706 48.8739 5.20173C49.0146 5.86284 49.1267 6.53287 49.2085 7.2118C49.294 7.89251 49.3529 8.55184 49.3833 9.19335C49.4137 9.83486 49.4385 10.3873 49.4594 10.847C49.581 10.4443 49.7521 9.94891 49.9764 9.36442C50.2045 8.77993 50.4497 8.15803 50.7139 7.49691C50.9762 6.83758 51.2651 6.18182 51.5806 5.52962C51.9 4.8792 52.2155 4.29471 52.531 3.77615C52.8503 3.25938 53.1621 2.83884 53.4662 2.51452C53.7741 2.18663 54.0744 2.02269 54.3634 2.02269H54.3938C54.7587 2.02269 55.1161 2.18663 55.4658 2.51452C55.8155 2.83884 56.152 3.25938 56.477 3.77615C56.8058 4.29471 57.1119 4.88454 57.397 5.54387C57.6859 6.20498 57.952 6.87501 58.1953 7.55394C58.4386 8.23465 58.6515 8.89398 58.834 9.53549C59.0202 10.177 59.1761 10.7294 59.2978 11.1892C59.3168 10.6332 59.3472 10.0059 59.389 9.3074C59.4289 8.60886 59.5049 7.90677 59.6171 7.19754C59.733 6.48475 59.887 5.79335 60.0809 5.12333C60.2729 4.4533 60.5105 3.85456 60.7956 3.3271C61.0845 2.79963 61.4361 2.37909 61.8524 2.06546C62.2725 1.74827 62.7591 1.58789 63.3122 1.58789C63.8843 1.58789 64.3082 1.77678 64.5819 2.15099C64.8594 2.52699 65.0001 2.98318 65.0001 3.51955C65.0001 4.09513 64.924 4.86316 64.772 5.82186C64.6199 6.777 64.4089 7.81589 64.1409 8.93675C63.8767 10.0594 63.565 11.1892 63.2057 12.3296C62.8503 13.4665 62.4568 14.4947 62.0273 15.416C61.5958 16.3337 61.1453 17.0839 60.6739 17.6684C60.2063 18.2529 59.7387 18.5451 59.2673 18.5451Z" fill="white"/>
</svg>
