<svg width="20" height="20" viewBox="0 0 20 20" fill="none" xmlns="http://www.w3.org/2000/svg">
<path d="M0.283203 8.21094C0.283203 7.10417 0.491536 6.0625 0.908203 5.08594C1.32487 4.10938 1.9043 3.25326 2.64648 2.51758C3.38867 1.77539 4.24479 1.19596 5.21484 0.779297C6.19141 0.36263 7.23633 0.154297 8.34961 0.154297C9.46289 0.154297 10.5046 0.36263 11.4746 0.779297C12.4512 1.19596 13.3105 1.77539 14.0527 2.51758C14.7949 3.25326 15.3743 4.10938 15.791 5.08594C16.2077 6.0625 16.416 7.10417 16.416 8.21094C16.416 9.04427 16.2923 9.83854 16.0449 10.5938C15.804 11.349 15.4655 12.0423 15.0293 12.6738L19.2383 16.9023C19.3945 17.0651 19.5117 17.2441 19.5898 17.4395C19.6745 17.6413 19.7168 17.8561 19.7168 18.084C19.7168 18.3965 19.6452 18.6797 19.502 18.9336C19.3587 19.1875 19.1634 19.3861 18.916 19.5293C18.6686 19.679 18.3822 19.7539 18.0566 19.7539C17.8353 19.7539 17.6204 19.7148 17.4121 19.6367C17.2038 19.5586 17.0182 19.4382 16.8555 19.2754L12.6074 15.0273C11.9954 15.418 11.3281 15.7272 10.6055 15.9551C9.88932 16.1764 9.13737 16.2871 8.34961 16.2871C7.23633 16.2871 6.19141 16.0788 5.21484 15.6621C4.24479 15.2454 3.38867 14.666 2.64648 13.9238C1.9043 13.1816 1.32487 12.3223 0.908203 11.3457C0.491536 10.3691 0.283203 9.32422 0.283203 8.21094ZM2.65625 8.21094C2.65625 8.9987 2.80273 9.73763 3.0957 10.4277C3.39518 11.1113 3.80534 11.7135 4.32617 12.2344C4.84701 12.7552 5.44922 13.1654 6.13281 13.4648C6.82292 13.7578 7.56185 13.9043 8.34961 13.9043C9.13737 13.9043 9.87305 13.7578 10.5566 13.4648C11.2467 13.1654 11.8522 12.7552 12.373 12.2344C12.8939 11.7135 13.3008 11.1113 13.5938 10.4277C13.8932 9.73763 14.043 8.9987 14.043 8.21094C14.043 7.42969 13.8932 6.69727 13.5938 6.01367C13.3008 5.32357 12.8939 4.7181 12.373 4.19727C11.8522 3.66992 11.2467 3.25977 10.5566 2.9668C9.87305 2.67383 9.13737 2.52734 8.34961 2.52734C7.56185 2.52734 6.82292 2.67383 6.13281 2.9668C5.44922 3.25977 4.84701 3.66992 4.32617 4.19727C3.80534 4.7181 3.39518 5.32357 3.0957 6.01367C2.80273 6.69727 2.65625 7.42969 2.65625 8.21094Z" fill="white"/>
</svg>
