<svg width="29" height="29" viewBox="0 0 29 29" fill="none" xmlns="http://www.w3.org/2000/svg">
<path d="M4.2832 12.2109C4.2832 11.1042 4.49154 10.0625 4.9082 9.08594C5.32487 8.10938 5.9043 7.25326 6.64648 6.51758C7.38867 5.77539 8.24479 5.19596 9.21484 4.7793C10.1914 4.36263 11.2363 4.1543 12.3496 4.1543C13.4629 4.1543 14.5046 4.36263 15.4746 4.7793C16.4512 5.19596 17.3105 5.77539 18.0527 6.51758C18.7949 7.25326 19.3743 8.10938 19.791 9.08594C20.2077 10.0625 20.416 11.1042 20.416 12.2109C20.416 13.0443 20.2923 13.8385 20.0449 14.5938C19.804 15.349 19.4655 16.0423 19.0293 16.6738L23.2383 20.9023C23.3945 21.0651 23.5117 21.2441 23.5898 21.4395C23.6745 21.6413 23.7168 21.8561 23.7168 22.084C23.7168 22.3965 23.6452 22.6797 23.502 22.9336C23.3587 23.1875 23.1634 23.3861 22.916 23.5293C22.6686 23.679 22.3822 23.7539 22.0566 23.7539C21.8353 23.7539 21.6204 23.7148 21.4121 23.6367C21.2038 23.5586 21.0182 23.4382 20.8555 23.2754L16.6074 19.0273C15.9954 19.418 15.3281 19.7272 14.6055 19.9551C13.8893 20.1764 13.1374 20.2871 12.3496 20.2871C11.2363 20.2871 10.1914 20.0788 9.21484 19.6621C8.24479 19.2454 7.38867 18.666 6.64648 17.9238C5.9043 17.1816 5.32487 16.3223 4.9082 15.3457C4.49154 14.3691 4.2832 13.3242 4.2832 12.2109ZM6.65625 12.2109C6.65625 12.9987 6.80273 13.7376 7.0957 14.4277C7.39518 15.1113 7.80534 15.7135 8.32617 16.2344C8.84701 16.7552 9.44922 17.1654 10.1328 17.4648C10.8229 17.7578 11.5618 17.9043 12.3496 17.9043C13.1374 17.9043 13.873 17.7578 14.5566 17.4648C15.2467 17.1654 15.8522 16.7552 16.373 16.2344C16.8939 15.7135 17.3008 15.1113 17.5938 14.4277C17.8932 13.7376 18.043 12.9987 18.043 12.2109C18.043 11.4297 17.8932 10.6973 17.5938 10.0137C17.3008 9.32357 16.8939 8.7181 16.373 8.19727C15.8522 7.66992 15.2467 7.25977 14.5566 6.9668C13.873 6.67383 13.1374 6.52734 12.3496 6.52734C11.5618 6.52734 10.8229 6.67383 10.1328 6.9668C9.44922 7.25977 8.84701 7.66992 8.32617 8.19727C7.80534 8.7181 7.39518 9.32357 7.0957 10.0137C6.80273 10.6973 6.65625 11.4297 6.65625 12.2109Z" fill="#1C1C1C"/>
</svg>
